# Tiled2Unity generated file. Do not modify by hand.
# Wavefront file for 'OverwoldTest3_mesh_0003.obj'

# Vertices (Count = 76)
v -12 -5 0
v -13 -5 0
v -13 -4 0
v -12 -4 0
v -14 -5 0
v -15 -5 0
v -15 -4 0
v -14 -4 0
v -12 -6 0
v -13 -6 0
v -13 -5 0
v -12 -5 0
v -14 -6 0
v -15 -6 0
v -15 -5 0
v -14 -5 0
v -16 -6 0
v -17 -6 0
v -17 -5 0
v -16 -5 0
v -4 -9 0
v -5 -9 0
v -5 -8 0
v -4 -8 0
v -21 -9 0
v -22 -9 0
v -22 -8 0
v -21 -8 0
v -4 -10 0
v -5 -10 0
v -5 -9 0
v -4 -9 0
v -21 -10 0
v -22 -10 0
v -22 -9 0
v -21 -9 0
v -4 -18 0
v -5 -18 0
v -5 -17 0
v -4 -17 0
v -6 -18 0
v -7 -18 0
v -7 -17 0
v -6 -17 0
v -8 -18 0
v -9 -18 0
v -9 -17 0
v -8 -17 0
v -4 -19 0
v -5 -19 0
v -5 -18 0
v -4 -18 0
v -8 -19 0
v -9 -19 0
v -9 -18 0
v -8 -18 0
v -6 -20 0
v -7 -20 0
v -7 -19 0
v -6 -19 0
v -6 -21 0
v -7 -21 0
v -7 -20 0
v -6 -20 0
v -2 -22 0
v -3 -22 0
v -3 -21 0
v -2 -21 0
v -22 -22 0
v -23 -22 0
v -23 -21 0
v -22 -21 0
v -21 -23 0
v -22 -23 0
v -22 -22 0
v -21 -22 0

# Texture cooridinates (Count = 38)
vt 0.425 0.2777778
vt 0.45 0.2777778
vt 0.45 0.3055556
vt 0.425 0.3055556
vt 0.575 0.4166667
vt 0.6 0.4166667
vt 0.6 0.4444444
vt 0.575 0.4444444
vt 0.425 0.25
vt 0.45 0.25
vt 0.575 0.3888889
vt 0.6 0.3888889
vt 0.875 0.9722222
vt 0.9 0.9722222
vt 0.9 1
vt 0.875 1
vt 0.625 0.4166667
vt 0.65 0.4166667
vt 0.65 0.4444444
vt 0.625 0.4444444
vt 0.625 0.3888889
vt 0.65 0.3888889
vt 0.925 0.75
vt 0.95 0.75
vt 0.95 0.7777778
vt 0.925 0.7777778
vt 0.875 0.9444444
vt 0.9 0.9444444
vt 0.925 0.7222222
vt 0.95 0.7222222
vt 0.175 0.8333333
vt 0.2 0.8333333
vt 0.2 0.8611111
vt 0.175 0.8611111
vt 0.25 0.8333333
vt 0.275 0.8333333
vt 0.275 0.8611111
vt 0.25 0.8611111

# Normal
vn 0 0 -1

# Mesh description
g OverwoldTest3_mesh_0003

# Faces
f 1/1/1 2/2/1 3/3/1 4/4/1
f 5/5/1 6/6/1 7/7/1 8/8/1
f 9/9/1 10/10/1 11/2/1 12/1/1
f 13/11/1 14/12/1 15/6/1 16/5/1
f 17/13/1 18/14/1 19/15/1 20/16/1
f 21/17/1 22/18/1 23/19/1 24/20/1
f 25/6/1 26/17/1 27/20/1 28/7/1
f 29/21/1 30/22/1 31/18/1 32/17/1
f 33/12/1 34/21/1 35/17/1 36/6/1
f 37/23/1 38/24/1 39/25/1 40/26/1
f 41/27/1 42/28/1 43/14/1 44/13/1
f 45/23/1 46/24/1 47/25/1 48/26/1
f 49/29/1 50/30/1 51/24/1 52/23/1
f 53/29/1 54/30/1 55/24/1 56/23/1
f 57/23/1 58/24/1 59/25/1 60/26/1
f 61/29/1 62/30/1 63/24/1 64/23/1
f 65/31/1 66/32/1 67/33/1 68/34/1
f 69/31/1 70/32/1 71/33/1 72/34/1
f 73/35/1 74/36/1 75/37/1 76/38/1

