# Tiled2Unity generated file. Do not modify by hand.
# Wavefront file for 'OverwoldTest3_mesh_0003.obj'

# Vertices (Count = 272)
v -5 -3 0
v -6 -3 0
v -6 -2 0
v -5 -2 0
v -12 -5 0
v -13 -5 0
v -13 -4 0
v -12 -4 0
v -14 -5 0
v -15 -5 0
v -15 -4 0
v -14 -4 0
v -12 -6 0
v -13 -6 0
v -13 -5 0
v -12 -5 0
v -14 -6 0
v -15 -6 0
v -15 -5 0
v -14 -5 0
v -16 -6 0
v -17 -6 0
v -17 -5 0
v -16 -5 0
v -4 -9 0
v -5 -9 0
v -5 -8 0
v -4 -8 0
v -21 -9 0
v -22 -9 0
v -22 -8 0
v -21 -8 0
v -4 -10 0
v -5 -10 0
v -5 -9 0
v -4 -9 0
v -21 -10 0
v -22 -10 0
v -22 -9 0
v -21 -9 0
v -11 -13 0
v -12 -13 0
v -12 -12 0
v -11 -12 0
v -13 -13 0
v -14 -13 0
v -14 -12 0
v -13 -12 0
v -15 -13 0
v -16 -13 0
v -16 -12 0
v -15 -12 0
v -2 -14 0
v -3 -14 0
v -3 -13 0
v -2 -13 0
v -4 -14 0
v -5 -14 0
v -5 -13 0
v -4 -13 0
v -5 -14 0
v -6 -14 0
v -6 -13 0
v -5 -13 0
v -7 -14 0
v -8 -14 0
v -8 -13 0
v -7 -13 0
v -11 -14 0
v -12 -14 0
v -12 -13 0
v -11 -13 0
v -13 -14 0
v -14 -14 0
v -14 -13 0
v -13 -13 0
v -15 -14 0
v -16 -14 0
v -16 -13 0
v -15 -13 0
v -2 -15 0
v -3 -15 0
v -3 -14 0
v -2 -14 0
v -4 -15 0
v -5 -15 0
v -5 -14 0
v -4 -14 0
v -5 -15 0
v -6 -15 0
v -6 -14 0
v -5 -14 0
v -7 -15 0
v -8 -15 0
v -8 -14 0
v -7 -14 0
v -18 -15 0
v -19 -15 0
v -19 -14 0
v -18 -14 0
v -23 -15 0
v -24 -15 0
v -24 -14 0
v -23 -14 0
v -18 -16 0
v -19 -16 0
v -19 -15 0
v -18 -15 0
v -23 -16 0
v -24 -16 0
v -24 -15 0
v -23 -15 0
v -1 -17 0
v -2 -17 0
v -2 -16 0
v -1 -16 0
v -2 -17 0
v -3 -17 0
v -3 -16 0
v -2 -16 0
v -4 -17 0
v -5 -17 0
v -5 -16 0
v -4 -16 0
v -6 -17 0
v -7 -17 0
v -7 -16 0
v -6 -16 0
v -7 -17 0
v -8 -17 0
v -8 -16 0
v -7 -16 0
v -11 -17 0
v -12 -17 0
v -12 -16 0
v -11 -16 0
v -13 -17 0
v -14 -17 0
v -14 -16 0
v -13 -16 0
v -15 -17 0
v -16 -17 0
v -16 -16 0
v -15 -16 0
v -18 -17 0
v -19 -17 0
v -19 -16 0
v -18 -16 0
v -23 -17 0
v -24 -17 0
v -24 -16 0
v -23 -16 0
v -1 -18 0
v -2 -18 0
v -2 -17 0
v -1 -17 0
v -2 -18 0
v -3 -18 0
v -3 -17 0
v -2 -17 0
v -4 -18 0
v -5 -18 0
v -5 -17 0
v -4 -17 0
v -6 -18 0
v -7 -18 0
v -7 -17 0
v -6 -17 0
v -7 -18 0
v -8 -18 0
v -8 -17 0
v -7 -17 0
v -11 -18 0
v -12 -18 0
v -12 -17 0
v -11 -17 0
v -13 -18 0
v -14 -18 0
v -14 -17 0
v -13 -17 0
v -15 -18 0
v -16 -18 0
v -16 -17 0
v -15 -17 0
v -18 -18 0
v -19 -18 0
v -19 -17 0
v -18 -17 0
v -23 -18 0
v -24 -18 0
v -24 -17 0
v -23 -17 0
v -18 -19 0
v -19 -19 0
v -19 -18 0
v -18 -18 0
v -23 -19 0
v -24 -19 0
v -24 -18 0
v -23 -18 0
v -18 -20 0
v -19 -20 0
v -19 -19 0
v -18 -19 0
v -23 -20 0
v -24 -20 0
v -24 -19 0
v -23 -19 0
v -2 -21 0
v -3 -21 0
v -3 -20 0
v -2 -20 0
v -4 -21 0
v -5 -21 0
v -5 -20 0
v -4 -20 0
v -6 -21 0
v -7 -21 0
v -7 -20 0
v -6 -20 0
v -11 -21 0
v -12 -21 0
v -12 -20 0
v -11 -20 0
v -13 -21 0
v -14 -21 0
v -14 -20 0
v -13 -20 0
v -15 -21 0
v -16 -21 0
v -16 -20 0
v -15 -20 0
v -18 -21 0
v -19 -21 0
v -19 -20 0
v -18 -20 0
v -23 -21 0
v -24 -21 0
v -24 -20 0
v -23 -20 0
v -2 -22 0
v -3 -22 0
v -3 -21 0
v -2 -21 0
v -4 -22 0
v -5 -22 0
v -5 -21 0
v -4 -21 0
v -6 -22 0
v -7 -22 0
v -7 -21 0
v -6 -21 0
v -11 -22 0
v -12 -22 0
v -12 -21 0
v -11 -21 0
v -13 -22 0
v -14 -22 0
v -14 -21 0
v -13 -21 0
v -15 -22 0
v -16 -22 0
v -16 -21 0
v -15 -21 0
v -18 -22 0
v -19 -22 0
v -19 -21 0
v -18 -21 0
v -23 -22 0
v -24 -22 0
v -24 -21 0
v -23 -21 0

# Texture cooridinates (Count = 65)
vt 0.875 0.9444444
vt 0.9 0.9444444
vt 0.9 0.9722222
vt 0.875 0.9722222
vt 0.425 0.2777778
vt 0.45 0.2777778
vt 0.45 0.3055556
vt 0.425 0.3055556
vt 0.575 0.4166667
vt 0.6 0.4166667
vt 0.6 0.4444444
vt 0.575 0.4444444
vt 0.425 0.25
vt 0.45 0.25
vt 0.575 0.3888889
vt 0.6 0.3888889
vt 0.9 1
vt 0.875 1
vt 0.625 0.4166667
vt 0.65 0.4166667
vt 0.65 0.4444444
vt 0.625 0.4444444
vt 0.625 0.3888889
vt 0.65 0.3888889
vt 0.925 0.75
vt 0.95 0.75
vt 0.95 0.7777778
vt 0.925 0.7777778
vt 0.75 0.9722222
vt 0.775 0.9722222
vt 0.775 1
vt 0.75 1
vt 0.875 0.75
vt 0.9 0.75
vt 0.9 0.7777778
vt 0.875 0.7777778
vt 0.925 0.7222222
vt 0.95 0.7222222
vt 0.775 0.9444444
vt 0.8 0.9444444
vt 0.8 0.9722222
vt 0.875 0.7222222
vt 0.9 0.7222222
vt 0.75 0.9444444
vt 0.65 0.8611111
vt 0.675 0.8611111
vt 0.675 0.8888889
vt 0.65 0.8888889
vt 0.7 0.8611111
vt 0.7 0.8888889
vt 0.65 0.8333333
vt 0.675 0.8333333
vt 0.7 0.8333333
vt 0.65 0.8055556
vt 0.675 0.8055556
vt 0.7 0.8055556
vt 0.65 0.7777778
vt 0.675 0.7777778
vt 0.7 0.7777778
vt 0.825 0.9722222
vt 0.85 0.9722222
vt 0.85 1
vt 0.825 1
vt 0.85 0.9444444
vt 0.825 0.9444444

# Normal
vn 0 0 -1

# Mesh description
g OverwoldTest3_mesh_0003

# Faces
f 1/1/1 2/2/1 3/3/1 4/4/1
f 5/5/1 6/6/1 7/7/1 8/8/1
f 9/9/1 10/10/1 11/11/1 12/12/1
f 13/13/1 14/14/1 15/6/1 16/5/1
f 17/15/1 18/16/1 19/10/1 20/9/1
f 21/4/1 22/3/1 23/17/1 24/18/1
f 25/19/1 26/20/1 27/21/1 28/22/1
f 29/10/1 30/19/1 31/22/1 32/11/1
f 33/23/1 34/24/1 35/20/1 36/19/1
f 37/16/1 38/23/1 39/19/1 40/10/1
f 41/25/1 42/26/1 43/27/1 44/28/1
f 45/25/1 46/26/1 47/27/1 48/28/1
f 49/25/1 50/26/1 51/27/1 52/28/1
f 53/29/1 54/30/1 55/31/1 56/32/1
f 57/33/1 58/34/1 59/35/1 60/36/1
f 61/34/1 62/25/1 63/28/1 64/35/1
f 65/29/1 66/30/1 67/31/1 68/32/1
f 69/37/1 70/38/1 71/26/1 72/25/1
f 73/37/1 74/38/1 75/26/1 76/25/1
f 77/37/1 78/38/1 79/26/1 80/25/1
f 81/39/1 82/40/1 83/41/1 84/30/1
f 85/42/1 86/43/1 87/34/1 88/33/1
f 89/43/1 90/37/1 91/25/1 92/34/1
f 93/44/1 94/39/1 95/30/1 96/29/1
f 97/45/1 98/46/1 99/47/1 100/48/1
f 101/46/1 102/49/1 103/50/1 104/47/1
f 105/51/1 106/52/1 107/46/1 108/45/1
f 109/52/1 110/53/1 111/49/1 112/46/1
f 113/33/1 114/34/1 115/35/1 116/36/1
f 117/34/1 118/25/1 119/28/1 120/35/1
f 121/29/1 122/30/1 123/31/1 124/32/1
f 125/33/1 126/34/1 127/35/1 128/36/1
f 129/34/1 130/25/1 131/28/1 132/35/1
f 133/25/1 134/26/1 135/27/1 136/28/1
f 137/25/1 138/26/1 139/27/1 140/28/1
f 141/25/1 142/26/1 143/27/1 144/28/1
f 145/51/1 146/52/1 147/46/1 148/45/1
f 149/52/1 150/53/1 151/49/1 152/46/1
f 153/42/1 154/43/1 155/34/1 156/33/1
f 157/43/1 158/37/1 159/25/1 160/34/1
f 161/39/1 162/40/1 163/41/1 164/30/1
f 165/42/1 166/43/1 167/34/1 168/33/1
f 169/43/1 170/37/1 171/25/1 172/34/1
f 173/37/1 174/38/1 175/26/1 176/25/1
f 177/37/1 178/38/1 179/26/1 180/25/1
f 181/37/1 182/38/1 183/26/1 184/25/1
f 185/51/1 186/52/1 187/46/1 188/45/1
f 189/52/1 190/53/1 191/49/1 192/46/1
f 193/54/1 194/55/1 195/52/1 196/51/1
f 197/55/1 198/56/1 199/53/1 200/52/1
f 201/57/1 202/58/1 203/55/1 204/54/1
f 205/58/1 206/59/1 207/56/1 208/55/1
f 209/60/1 210/61/1 211/62/1 212/63/1
f 213/29/1 214/30/1 215/31/1 216/32/1
f 217/60/1 218/61/1 219/62/1 220/63/1
f 221/25/1 222/26/1 223/27/1 224/28/1
f 225/25/1 226/26/1 227/27/1 228/28/1
f 229/25/1 230/26/1 231/27/1 232/28/1
f 233/60/1 234/61/1 235/62/1 236/63/1
f 237/60/1 238/61/1 239/62/1 240/63/1
f 241/64/1 242/1/1 243/4/1 244/61/1
f 245/39/1 246/40/1 247/41/1 248/30/1
f 249/64/1 250/1/1 251/4/1 252/61/1
f 253/37/1 254/38/1 255/26/1 256/25/1
f 257/37/1 258/38/1 259/26/1 260/25/1
f 261/37/1 262/38/1 263/26/1 264/25/1
f 265/65/1 266/64/1 267/61/1 268/60/1
f 269/64/1 270/1/1 271/4/1 272/61/1

