# Tiled2Unity generated file. Do not modify by hand.
# Wavefront file for 'OverwoldTest3_mesh_0002.obj'

# Vertices (Count = 836)
v 0 -1 0
v -1 -1 0
v -1 0 0
v 0 0 0
v -1 -1 0
v -2 -1 0
v -2 0 0
v -1 0 0
v -2 -1 0
v -3 -1 0
v -3 0 0
v -2 0 0
v -3 -1 0
v -4 -1 0
v -4 0 0
v -3 0 0
v -4 -1 0
v -5 -1 0
v -5 0 0
v -4 0 0
v -5 -1 0
v -6 -1 0
v -6 0 0
v -5 0 0
v -6 -1 0
v -7 -1 0
v -7 0 0
v -6 0 0
v -7 -1 0
v -8 -1 0
v -8 0 0
v -7 0 0
v -8 -1 0
v -9 -1 0
v -9 0 0
v -8 0 0
v -9 -1 0
v -10 -1 0
v -10 0 0
v -9 0 0
v -10 -1 0
v -11 -1 0
v -11 0 0
v -10 0 0
v -11 -1 0
v -12 -1 0
v -12 0 0
v -11 0 0
v -12 -1 0
v -13 -1 0
v -13 0 0
v -12 0 0
v -13 -1 0
v -14 -1 0
v -14 0 0
v -13 0 0
v -14 -1 0
v -15 -1 0
v -15 0 0
v -14 0 0
v -15 -1 0
v -16 -1 0
v -16 0 0
v -15 0 0
v -16 -1 0
v -17 -1 0
v -17 0 0
v -16 0 0
v -17 -1 0
v -18 -1 0
v -18 0 0
v -17 0 0
v -18 -1 0
v -19 -1 0
v -19 0 0
v -18 0 0
v -19 -1 0
v -20 -1 0
v -20 0 0
v -19 0 0
v -20 -1 0
v -21 -1 0
v -21 0 0
v -20 0 0
v -21 -1 0
v -22 -1 0
v -22 0 0
v -21 0 0
v -22 -1 0
v -23 -1 0
v -23 0 0
v -22 0 0
v -23 -1 0
v -24 -1 0
v -24 0 0
v -23 0 0
v -24 -1 0
v -25 -1 0
v -25 0 0
v -24 0 0
v 0 -2 0
v -1 -2 0
v -1 -1 0
v 0 -1 0
v -11 -2 0
v -12 -2 0
v -12 -1 0
v -11 -1 0
v -12 -2 0
v -13 -2 0
v -13 -1 0
v -12 -1 0
v -13 -2 0
v -14 -2 0
v -14 -1 0
v -13 -1 0
v -14 -2 0
v -15 -2 0
v -15 -1 0
v -14 -1 0
v -15 -2 0
v -16 -2 0
v -16 -1 0
v -15 -1 0
v -24 -2 0
v -25 -2 0
v -25 -1 0
v -24 -1 0
v 0 -3 0
v -1 -3 0
v -1 -2 0
v 0 -2 0
v -11 -3 0
v -12 -3 0
v -12 -2 0
v -11 -2 0
v -12 -3 0
v -13 -3 0
v -13 -2 0
v -12 -2 0
v -13 -3 0
v -14 -3 0
v -14 -2 0
v -13 -2 0
v -14 -3 0
v -15 -3 0
v -15 -2 0
v -14 -2 0
v -15 -3 0
v -16 -3 0
v -16 -2 0
v -15 -2 0
v -24 -3 0
v -25 -3 0
v -25 -2 0
v -24 -2 0
v 0 -4 0
v -1 -4 0
v -1 -3 0
v 0 -3 0
v -11 -4 0
v -12 -4 0
v -12 -3 0
v -11 -3 0
v -12 -4 0
v -13 -4 0
v -13 -3 0
v -12 -3 0
v -13 -4 0
v -14 -4 0
v -14 -3 0
v -13 -3 0
v -14 -4 0
v -15 -4 0
v -15 -3 0
v -14 -3 0
v -15 -4 0
v -16 -4 0
v -16 -3 0
v -15 -3 0
v -24 -4 0
v -25 -4 0
v -25 -3 0
v -24 -3 0
v 0 -5 0
v -1 -5 0
v -1 -4 0
v 0 -4 0
v -11 -5 0
v -12 -5 0
v -12 -4 0
v -11 -4 0
v -12 -5 0
v -13 -5 0
v -13 -4 0
v -12 -4 0
v -13 -5 0
v -14 -5 0
v -14 -4 0
v -13 -4 0
v -14 -5 0
v -15 -5 0
v -15 -4 0
v -14 -4 0
v -15 -5 0
v -16 -5 0
v -16 -4 0
v -15 -4 0
v -16 -5 0
v -17 -5 0
v -17 -4 0
v -16 -4 0
v -24 -5 0
v -25 -5 0
v -25 -4 0
v -24 -4 0
v 0 -6 0
v -1 -6 0
v -1 -5 0
v 0 -5 0
v -3 -6 0
v -4 -6 0
v -4 -5 0
v -3 -5 0
v -4 -6 0
v -5 -6 0
v -5 -5 0
v -4 -5 0
v -5 -6 0
v -6 -6 0
v -6 -5 0
v -5 -5 0
v -6 -6 0
v -7 -6 0
v -7 -5 0
v -6 -5 0
v -7 -6 0
v -8 -6 0
v -8 -5 0
v -7 -5 0
v -11 -6 0
v -12 -6 0
v -12 -5 0
v -11 -5 0
v -12 -6 0
v -13 -6 0
v -13 -5 0
v -12 -5 0
v -13 -6 0
v -14 -6 0
v -14 -5 0
v -13 -5 0
v -14 -6 0
v -15 -6 0
v -15 -5 0
v -14 -5 0
v -15 -6 0
v -16 -6 0
v -16 -5 0
v -15 -5 0
v -16 -6 0
v -17 -6 0
v -17 -5 0
v -16 -5 0
v -18 -6 0
v -19 -6 0
v -19 -5 0
v -18 -5 0
v -19 -6 0
v -20 -6 0
v -20 -5 0
v -19 -5 0
v -20 -6 0
v -21 -6 0
v -21 -5 0
v -20 -5 0
v -21 -6 0
v -22 -6 0
v -22 -5 0
v -21 -5 0
v -22 -6 0
v -23 -6 0
v -23 -5 0
v -22 -5 0
v -24 -6 0
v -25 -6 0
v -25 -5 0
v -24 -5 0
v 0 -7 0
v -1 -7 0
v -1 -6 0
v 0 -6 0
v -3 -7 0
v -4 -7 0
v -4 -6 0
v -3 -6 0
v -4 -7 0
v -5 -7 0
v -5 -6 0
v -4 -6 0
v -5 -7 0
v -6 -7 0
v -6 -6 0
v -5 -6 0
v -6 -7 0
v -7 -7 0
v -7 -6 0
v -6 -6 0
v -7 -7 0
v -8 -7 0
v -8 -6 0
v -7 -6 0
v -11 -7 0
v -12 -7 0
v -12 -6 0
v -11 -6 0
v -12 -7 0
v -13 -7 0
v -13 -6 0
v -12 -6 0
v -13 -7 0
v -14 -7 0
v -14 -6 0
v -13 -6 0
v -14 -7 0
v -15 -7 0
v -15 -6 0
v -14 -6 0
v -15 -7 0
v -16 -7 0
v -16 -6 0
v -15 -6 0
v -16 -7 0
v -17 -7 0
v -17 -6 0
v -16 -6 0
v -18 -7 0
v -19 -7 0
v -19 -6 0
v -18 -6 0
v -19 -7 0
v -20 -7 0
v -20 -6 0
v -19 -6 0
v -20 -7 0
v -21 -7 0
v -21 -6 0
v -20 -6 0
v -21 -7 0
v -22 -7 0
v -22 -6 0
v -21 -6 0
v -22 -7 0
v -23 -7 0
v -23 -6 0
v -22 -6 0
v -24 -7 0
v -25 -7 0
v -25 -6 0
v -24 -6 0
v 0 -8 0
v -1 -8 0
v -1 -7 0
v 0 -7 0
v -3 -8 0
v -4 -8 0
v -4 -7 0
v -3 -7 0
v -4 -8 0
v -5 -8 0
v -5 -7 0
v -4 -7 0
v -5 -8 0
v -6 -8 0
v -6 -7 0
v -5 -7 0
v -6 -8 0
v -7 -8 0
v -7 -7 0
v -6 -7 0
v -7 -8 0
v -8 -8 0
v -8 -7 0
v -7 -7 0
v -18 -8 0
v -19 -8 0
v -19 -7 0
v -18 -7 0
v -19 -8 0
v -20 -8 0
v -20 -7 0
v -19 -7 0
v -20 -8 0
v -21 -8 0
v -21 -7 0
v -20 -7 0
v -21 -8 0
v -22 -8 0
v -22 -7 0
v -21 -7 0
v -22 -8 0
v -23 -8 0
v -23 -7 0
v -22 -7 0
v -24 -8 0
v -25 -8 0
v -25 -7 0
v -24 -7 0
v 0 -9 0
v -1 -9 0
v -1 -8 0
v 0 -8 0
v -3 -9 0
v -4 -9 0
v -4 -8 0
v -3 -8 0
v -4 -9 0
v -5 -9 0
v -5 -8 0
v -4 -8 0
v -5 -9 0
v -6 -9 0
v -6 -8 0
v -5 -8 0
v -6 -9 0
v -7 -9 0
v -7 -8 0
v -6 -8 0
v -7 -9 0
v -8 -9 0
v -8 -8 0
v -7 -8 0
v -17 -9 0
v -18 -9 0
v -18 -8 0
v -17 -8 0
v -18 -9 0
v -19 -9 0
v -19 -8 0
v -18 -8 0
v -19 -9 0
v -20 -9 0
v -20 -8 0
v -19 -8 0
v -20 -9 0
v -21 -9 0
v -21 -8 0
v -20 -8 0
v -21 -9 0
v -22 -9 0
v -22 -8 0
v -21 -8 0
v -22 -9 0
v -23 -9 0
v -23 -8 0
v -22 -8 0
v -24 -9 0
v -25 -9 0
v -25 -8 0
v -24 -8 0
v 0 -10 0
v -1 -10 0
v -1 -9 0
v 0 -9 0
v -2 -10 0
v -3 -10 0
v -3 -9 0
v -2 -9 0
v -3 -10 0
v -4 -10 0
v -4 -9 0
v -3 -9 0
v -4 -10 0
v -5 -10 0
v -5 -9 0
v -4 -9 0
v -5 -10 0
v -6 -10 0
v -6 -9 0
v -5 -9 0
v -6 -10 0
v -7 -10 0
v -7 -9 0
v -6 -9 0
v -7 -10 0
v -8 -10 0
v -8 -9 0
v -7 -9 0
v -8 -10 0
v -9 -10 0
v -9 -9 0
v -8 -9 0
v -17 -10 0
v -18 -10 0
v -18 -9 0
v -17 -9 0
v -18 -10 0
v -19 -10 0
v -19 -9 0
v -18 -9 0
v -19 -10 0
v -20 -10 0
v -20 -9 0
v -19 -9 0
v -20 -10 0
v -21 -10 0
v -21 -9 0
v -20 -9 0
v -21 -10 0
v -22 -10 0
v -22 -9 0
v -21 -9 0
v -22 -10 0
v -23 -10 0
v -23 -9 0
v -22 -9 0
v -24 -10 0
v -25 -10 0
v -25 -9 0
v -24 -9 0
v 0 -11 0
v -1 -11 0
v -1 -10 0
v 0 -10 0
v -2 -11 0
v -3 -11 0
v -3 -10 0
v -2 -10 0
v -3 -11 0
v -4 -11 0
v -4 -10 0
v -3 -10 0
v -4 -11 0
v -5 -11 0
v -5 -10 0
v -4 -10 0
v -5 -11 0
v -6 -11 0
v -6 -10 0
v -5 -10 0
v -6 -11 0
v -7 -11 0
v -7 -10 0
v -6 -10 0
v -7 -11 0
v -8 -11 0
v -8 -10 0
v -7 -10 0
v -8 -11 0
v -9 -11 0
v -9 -10 0
v -8 -10 0
v -17 -11 0
v -18 -11 0
v -18 -10 0
v -17 -10 0
v -18 -11 0
v -19 -11 0
v -19 -10 0
v -18 -10 0
v -19 -11 0
v -20 -11 0
v -20 -10 0
v -19 -10 0
v -20 -11 0
v -21 -11 0
v -21 -10 0
v -20 -10 0
v -21 -11 0
v -22 -11 0
v -22 -10 0
v -21 -10 0
v -22 -11 0
v -23 -11 0
v -23 -10 0
v -22 -10 0
v -24 -11 0
v -25 -11 0
v -25 -10 0
v -24 -10 0
v 0 -12 0
v -1 -12 0
v -1 -11 0
v 0 -11 0
v -2 -12 0
v -3 -12 0
v -3 -11 0
v -2 -11 0
v -3 -12 0
v -4 -12 0
v -4 -11 0
v -3 -11 0
v -17 -12 0
v -18 -12 0
v -18 -11 0
v -17 -11 0
v -18 -12 0
v -19 -12 0
v -19 -11 0
v -18 -11 0
v -24 -12 0
v -25 -12 0
v -25 -11 0
v -24 -11 0
v 0 -13 0
v -1 -13 0
v -1 -12 0
v 0 -12 0
v -2 -13 0
v -3 -13 0
v -3 -12 0
v -2 -12 0
v -24 -13 0
v -25 -13 0
v -25 -12 0
v -24 -12 0
v 0 -14 0
v -1 -14 0
v -1 -13 0
v 0 -13 0
v 0 -15 0
v -1 -15 0
v -1 -14 0
v 0 -14 0
v -24 -15 0
v -25 -15 0
v -25 -14 0
v -24 -14 0
v 0 -16 0
v -1 -16 0
v -1 -15 0
v 0 -15 0
v -24 -16 0
v -25 -16 0
v -25 -15 0
v -24 -15 0
v 0 -17 0
v -1 -17 0
v -1 -16 0
v 0 -16 0
v -5 -17 0
v -6 -17 0
v -6 -16 0
v -5 -16 0
v -6 -17 0
v -7 -17 0
v -7 -16 0
v -6 -16 0
v -7 -17 0
v -8 -17 0
v -8 -16 0
v -7 -16 0
v -24 -17 0
v -25 -17 0
v -25 -16 0
v -24 -16 0
v 0 -18 0
v -1 -18 0
v -1 -17 0
v 0 -17 0
v -5 -18 0
v -6 -18 0
v -6 -17 0
v -5 -17 0
v -6 -18 0
v -7 -18 0
v -7 -17 0
v -6 -17 0
v -7 -18 0
v -8 -18 0
v -8 -17 0
v -7 -17 0
v -24 -18 0
v -25 -18 0
v -25 -17 0
v -24 -17 0
v 0 -19 0
v -1 -19 0
v -1 -18 0
v 0 -18 0
v -5 -19 0
v -6 -19 0
v -6 -18 0
v -5 -18 0
v -6 -19 0
v -7 -19 0
v -7 -18 0
v -6 -18 0
v -7 -19 0
v -8 -19 0
v -8 -18 0
v -7 -18 0
v -24 -19 0
v -25 -19 0
v -25 -18 0
v -24 -18 0
v 0 -20 0
v -1 -20 0
v -1 -19 0
v 0 -19 0
v -24 -20 0
v -25 -20 0
v -25 -19 0
v -24 -19 0
v 0 -21 0
v -1 -21 0
v -1 -20 0
v 0 -20 0
v -24 -21 0
v -25 -21 0
v -25 -20 0
v -24 -20 0
v 0 -22 0
v -1 -22 0
v -1 -21 0
v 0 -21 0
v -24 -22 0
v -25 -22 0
v -25 -21 0
v -24 -21 0
v 0 -23 0
v -1 -23 0
v -1 -22 0
v 0 -22 0
v -24 -23 0
v -25 -23 0
v -25 -22 0
v -24 -22 0
v 0 -24 0
v -1 -24 0
v -1 -23 0
v 0 -23 0
v -24 -24 0
v -25 -24 0
v -25 -23 0
v -24 -23 0
v 0 -25 0
v -1 -25 0
v -1 -24 0
v 0 -24 0
v -1 -25 0
v -2 -25 0
v -2 -24 0
v -1 -24 0
v -2 -25 0
v -3 -25 0
v -3 -24 0
v -2 -24 0
v -3 -25 0
v -4 -25 0
v -4 -24 0
v -3 -24 0
v -4 -25 0
v -5 -25 0
v -5 -24 0
v -4 -24 0
v -5 -25 0
v -6 -25 0
v -6 -24 0
v -5 -24 0
v -6 -25 0
v -7 -25 0
v -7 -24 0
v -6 -24 0
v -7 -25 0
v -8 -25 0
v -8 -24 0
v -7 -24 0
v -8 -25 0
v -9 -25 0
v -9 -24 0
v -8 -24 0
v -9 -25 0
v -10 -25 0
v -10 -24 0
v -9 -24 0
v -10 -25 0
v -11 -25 0
v -11 -24 0
v -10 -24 0
v -11 -25 0
v -12 -25 0
v -12 -24 0
v -11 -24 0
v -12 -25 0
v -13 -25 0
v -13 -24 0
v -12 -24 0
v -13 -25 0
v -14 -25 0
v -14 -24 0
v -13 -24 0
v -14 -25 0
v -15 -25 0
v -15 -24 0
v -14 -24 0
v -15 -25 0
v -16 -25 0
v -16 -24 0
v -15 -24 0
v -16 -25 0
v -17 -25 0
v -17 -24 0
v -16 -24 0
v -17 -25 0
v -18 -25 0
v -18 -24 0
v -17 -24 0
v -18 -25 0
v -19 -25 0
v -19 -24 0
v -18 -24 0
v -19 -25 0
v -20 -25 0
v -20 -24 0
v -19 -24 0
v -20 -25 0
v -21 -25 0
v -21 -24 0
v -20 -24 0
v -21 -25 0
v -22 -25 0
v -22 -24 0
v -21 -24 0
v -22 -25 0
v -23 -25 0
v -23 -24 0
v -22 -24 0
v -23 -25 0
v -24 -25 0
v -24 -24 0
v -23 -24 0
v -24 -25 0
v -25 -25 0
v -25 -24 0
v -24 -24 0

# Texture cooridinates (Count = 110)
vt 0.1 0.4444444
vt 0.125 0.4444444
vt 0.125 0.4722222
vt 0.1 0.4722222
vt 0.15 0.4444444
vt 0.15 0.4722222
vt 0.075 0.4444444
vt 0.075 0.4722222
vt 0.175 0.4722222
vt 0.2 0.4722222
vt 0.2 0.5
vt 0.175 0.5
vt 0.45 0.3611111
vt 0.475 0.3611111
vt 0.475 0.3888889
vt 0.45 0.3888889
vt 0.5 0.3611111
vt 0.5 0.3888889
vt 0.525 0.3611111
vt 0.525 0.3888889
vt 0.55 0.3611111
vt 0.55 0.3888889
vt 0.575 0.3611111
vt 0.575 0.3888889
vt 0.15 0.5
vt 0.45 0.3333333
vt 0.475 0.3333333
vt 0.5 0.3333333
vt 0.525 0.3333333
vt 0.55 0.3333333
vt 0.575 0.3333333
vt 0.45 0.3055556
vt 0.475 0.3055556
vt 0.5 0.3055556
vt 0.525 0.3055556
vt 0.55 0.3055556
vt 0.575 0.3055556
vt 0.45 0.2777778
vt 0.475 0.2777778
vt 0.5 0.2777778
vt 0.525 0.2777778
vt 0.55 0.2777778
vt 0.575 0.2777778
vt 0.825 0.9722222
vt 0.85 0.9722222
vt 0.85 1
vt 0.825 1
vt 0.45 0.25
vt 0.475 0.25
vt 0.5 0.25
vt 0.525 0.25
vt 0.55 0.25
vt 0.575 0.25
vt 0.875 0.9722222
vt 0.875 1
vt 0.45 0.2222222
vt 0.475 0.2222222
vt 0.5 0.2222222
vt 0.525 0.2222222
vt 0.55 0.2222222
vt 0.575 0.2222222
vt 0.85 0.9444444
vt 0.875 0.9444444
vt 0.75 0.9722222
vt 0.775 0.9722222
vt 0.775 1
vt 0.75 1
vt 0.75 0.9444444
vt 0.775 0.9444444
vt 0.7 0.4166667
vt 0.725 0.4166667
vt 0.725 0.4444444
vt 0.7 0.4444444
vt 0.825 0.9444444
vt 0.675 0.4166667
vt 0.675 0.4444444
vt 0.75 0.4166667
vt 0.75 0.4444444
vt 0.65 0.4166667
vt 0.65 0.4444444
vt 0.7 0.3888889
vt 0.725 0.3888889
vt 0.675 0.3888889
vt 0.75 0.3888889
vt 0.65 0.3888889
vt 0.125 0.5
vt 0.15 0.5277778
vt 0.125 0.5277778
vt 0.15 0.5555556
vt 0.125 0.5555556
vt 0.875 0.6944444
vt 0.9 0.6944444
vt 0.9 0.7222222
vt 0.875 0.7222222
vt 0.925 0.6944444
vt 0.925 0.7222222
vt 0.95 0.6944444
vt 0.95 0.7222222
vt 0.875 0.6666666
vt 0.9 0.6666666
vt 0.925 0.6666666
vt 0.95 0.6666666
vt 0.875 0.6388889
vt 0.9 0.6388889
vt 0.925 0.6388889
vt 0.95 0.6388889
vt 0.2 0.5277778
vt 0.175 0.5277778
vt 0.2 0.5555556
vt 0.175 0.5555556

# Normal
vn 0 0 -1

# Mesh description
g OverwoldTest3_mesh_0002

# Faces
f 1/1/1 2/2/1 3/3/1 4/4/1
f 5/2/1 6/5/1 7/6/1 8/3/1
f 9/2/1 10/5/1 11/6/1 12/3/1
f 13/2/1 14/5/1 15/6/1 16/3/1
f 17/2/1 18/5/1 19/6/1 20/3/1
f 21/2/1 22/5/1 23/6/1 24/3/1
f 25/2/1 26/5/1 27/6/1 28/3/1
f 29/2/1 30/5/1 31/6/1 32/3/1
f 33/2/1 34/5/1 35/6/1 36/3/1
f 37/2/1 38/5/1 39/6/1 40/3/1
f 41/2/1 42/5/1 43/6/1 44/3/1
f 45/2/1 46/5/1 47/6/1 48/3/1
f 49/2/1 50/5/1 51/6/1 52/3/1
f 53/2/1 54/5/1 55/6/1 56/3/1
f 57/2/1 58/5/1 59/6/1 60/3/1
f 61/2/1 62/5/1 63/6/1 64/3/1
f 65/2/1 66/5/1 67/6/1 68/3/1
f 69/2/1 70/5/1 71/6/1 72/3/1
f 73/2/1 74/5/1 75/6/1 76/3/1
f 77/2/1 78/5/1 79/6/1 80/3/1
f 81/2/1 82/5/1 83/6/1 84/3/1
f 85/2/1 86/5/1 87/6/1 88/3/1
f 89/2/1 90/5/1 91/6/1 92/3/1
f 93/2/1 94/5/1 95/6/1 96/3/1
f 97/7/1 98/1/1 99/4/1 100/8/1
f 101/9/1 102/10/1 103/11/1 104/12/1
f 105/13/1 106/14/1 107/15/1 108/16/1
f 109/14/1 110/17/1 111/18/1 112/15/1
f 113/17/1 114/19/1 115/20/1 116/18/1
f 117/19/1 118/21/1 119/22/1 120/20/1
f 121/21/1 122/23/1 123/24/1 124/22/1
f 125/6/1 126/9/1 127/12/1 128/25/1
f 129/9/1 130/10/1 131/11/1 132/12/1
f 133/26/1 134/27/1 135/14/1 136/13/1
f 137/27/1 138/28/1 139/17/1 140/14/1
f 141/28/1 142/29/1 143/19/1 144/17/1
f 145/29/1 146/30/1 147/21/1 148/19/1
f 149/30/1 150/31/1 151/23/1 152/21/1
f 153/6/1 154/9/1 155/12/1 156/25/1
f 157/9/1 158/10/1 159/11/1 160/12/1
f 161/32/1 162/33/1 163/27/1 164/26/1
f 165/33/1 166/34/1 167/28/1 168/27/1
f 169/34/1 170/35/1 171/29/1 172/28/1
f 173/35/1 174/36/1 175/30/1 176/29/1
f 177/36/1 178/37/1 179/31/1 180/30/1
f 181/6/1 182/9/1 183/12/1 184/25/1
f 185/9/1 186/10/1 187/11/1 188/12/1
f 189/38/1 190/39/1 191/33/1 192/32/1
f 193/39/1 194/40/1 195/34/1 196/33/1
f 197/40/1 198/41/1 199/35/1 200/34/1
f 201/41/1 202/42/1 203/36/1 204/35/1
f 205/42/1 206/43/1 207/37/1 208/36/1
f 209/44/1 210/45/1 211/46/1 212/47/1
f 213/6/1 214/9/1 215/12/1 216/25/1
f 217/9/1 218/10/1 219/11/1 220/12/1
f 221/13/1 222/14/1 223/15/1 224/16/1
f 225/14/1 226/17/1 227/18/1 228/15/1
f 229/17/1 230/19/1 231/20/1 232/18/1
f 233/19/1 234/21/1 235/22/1 236/20/1
f 237/21/1 238/23/1 239/24/1 240/22/1
f 241/48/1 242/49/1 243/39/1 244/38/1
f 245/49/1 246/50/1 247/40/1 248/39/1
f 249/50/1 250/51/1 251/41/1 252/40/1
f 253/51/1 254/52/1 255/42/1 256/41/1
f 257/52/1 258/53/1 259/43/1 260/42/1
f 261/45/1 262/54/1 263/55/1 264/46/1
f 265/13/1 266/14/1 267/15/1 268/16/1
f 269/14/1 270/17/1 271/18/1 272/15/1
f 273/17/1 274/19/1 275/20/1 276/18/1
f 277/19/1 278/21/1 279/22/1 280/20/1
f 281/21/1 282/23/1 283/24/1 284/22/1
f 285/6/1 286/9/1 287/12/1 288/25/1
f 289/9/1 290/10/1 291/11/1 292/12/1
f 293/26/1 294/27/1 295/14/1 296/13/1
f 297/27/1 298/28/1 299/17/1 300/14/1
f 301/28/1 302/29/1 303/19/1 304/17/1
f 305/29/1 306/30/1 307/21/1 308/19/1
f 309/30/1 310/31/1 311/23/1 312/21/1
f 313/56/1 314/57/1 315/49/1 316/48/1
f 317/57/1 318/58/1 319/50/1 320/49/1
f 321/58/1 322/59/1 323/51/1 324/50/1
f 325/59/1 326/60/1 327/52/1 328/51/1
f 329/60/1 330/61/1 331/53/1 332/52/1
f 333/62/1 334/63/1 335/54/1 336/45/1
f 337/26/1 338/27/1 339/14/1 340/13/1
f 341/27/1 342/28/1 343/17/1 344/14/1
f 345/28/1 346/29/1 347/19/1 348/17/1
f 349/29/1 350/30/1 351/21/1 352/19/1
f 353/30/1 354/31/1 355/23/1 356/21/1
f 357/6/1 358/9/1 359/12/1 360/25/1
f 361/9/1 362/10/1 363/11/1 364/12/1
f 365/32/1 366/33/1 367/27/1 368/26/1
f 369/33/1 370/34/1 371/28/1 372/27/1
f 373/34/1 374/35/1 375/29/1 376/28/1
f 377/35/1 378/36/1 379/30/1 380/29/1
f 381/36/1 382/37/1 383/31/1 384/30/1
f 385/32/1 386/33/1 387/27/1 388/26/1
f 389/33/1 390/34/1 391/28/1 392/27/1
f 393/34/1 394/35/1 395/29/1 396/28/1
f 397/35/1 398/36/1 399/30/1 400/29/1
f 401/36/1 402/37/1 403/31/1 404/30/1
f 405/6/1 406/9/1 407/12/1 408/25/1
f 409/9/1 410/10/1 411/11/1 412/12/1
f 413/38/1 414/39/1 415/33/1 416/32/1
f 417/39/1 418/40/1 419/34/1 420/33/1
f 421/40/1 422/41/1 423/35/1 424/34/1
f 425/41/1 426/42/1 427/36/1 428/35/1
f 429/42/1 430/43/1 431/37/1 432/36/1
f 433/64/1 434/65/1 435/66/1 436/67/1
f 437/38/1 438/39/1 439/33/1 440/32/1
f 441/39/1 442/40/1 443/34/1 444/33/1
f 445/40/1 446/41/1 447/35/1 448/34/1
f 449/41/1 450/42/1 451/36/1 452/35/1
f 453/42/1 454/43/1 455/37/1 456/36/1
f 457/6/1 458/9/1 459/12/1 460/25/1
f 461/9/1 462/10/1 463/11/1 464/12/1
f 465/64/1 466/65/1 467/66/1 468/67/1
f 469/48/1 470/49/1 471/39/1 472/38/1
f 473/49/1 474/50/1 475/40/1 476/39/1
f 477/50/1 478/51/1 479/41/1 480/40/1
f 481/51/1 482/52/1 483/42/1 484/41/1
f 485/52/1 486/53/1 487/43/1 488/42/1
f 489/44/1 490/45/1 491/46/1 492/47/1
f 493/68/1 494/69/1 495/65/1 496/64/1
f 497/48/1 498/49/1 499/39/1 500/38/1
f 501/49/1 502/50/1 503/40/1 504/39/1
f 505/50/1 506/51/1 507/41/1 508/40/1
f 509/51/1 510/52/1 511/42/1 512/41/1
f 513/52/1 514/53/1 515/43/1 516/42/1
f 517/6/1 518/9/1 519/12/1 520/25/1
f 521/9/1 522/10/1 523/11/1 524/12/1
f 525/68/1 526/69/1 527/65/1 528/64/1
f 529/70/1 530/71/1 531/72/1 532/73/1
f 533/57/1 534/58/1 535/50/1 536/49/1
f 537/58/1 538/59/1 539/51/1 540/50/1
f 541/59/1 542/60/1 543/52/1 544/51/1
f 545/60/1 546/61/1 547/53/1 548/52/1
f 549/74/1 550/62/1 551/45/1 552/44/1
f 553/75/1 554/70/1 555/73/1 556/76/1
f 557/71/1 558/77/1 559/78/1 560/72/1
f 561/57/1 562/58/1 563/50/1 564/49/1
f 565/58/1 566/59/1 567/51/1 568/50/1
f 569/59/1 570/60/1 571/52/1 572/51/1
f 573/60/1 574/61/1 575/53/1 576/52/1
f 577/6/1 578/9/1 579/12/1 580/25/1
f 581/9/1 582/10/1 583/11/1 584/12/1
f 585/79/1 586/75/1 587/76/1 588/80/1
f 589/81/1 590/82/1 591/71/1 592/70/1
f 593/83/1 594/81/1 595/70/1 596/75/1
f 597/82/1 598/84/1 599/77/1 600/71/1
f 601/6/1 602/9/1 603/12/1 604/25/1
f 605/9/1 606/10/1 607/11/1 608/12/1
f 609/85/1 610/83/1 611/75/1 612/79/1
f 613/86/1 614/25/1 615/87/1 616/88/1
f 617/9/1 618/10/1 619/11/1 620/12/1
f 621/9/1 622/10/1 623/11/1 624/12/1
f 625/88/1 626/87/1 627/89/1 628/90/1
f 629/9/1 630/10/1 631/11/1 632/12/1
f 633/6/1 634/9/1 635/12/1 636/25/1
f 637/9/1 638/10/1 639/11/1 640/12/1
f 641/91/1 642/92/1 643/93/1 644/94/1
f 645/92/1 646/95/1 647/96/1 648/93/1
f 649/95/1 650/97/1 651/98/1 652/96/1
f 653/6/1 654/9/1 655/12/1 656/25/1
f 657/9/1 658/10/1 659/11/1 660/12/1
f 661/99/1 662/100/1 663/92/1 664/91/1
f 665/100/1 666/101/1 667/95/1 668/92/1
f 669/101/1 670/102/1 671/97/1 672/95/1
f 673/6/1 674/9/1 675/12/1 676/25/1
f 677/9/1 678/10/1 679/11/1 680/12/1
f 681/103/1 682/104/1 683/100/1 684/99/1
f 685/104/1 686/105/1 687/101/1 688/100/1
f 689/105/1 690/106/1 691/102/1 692/101/1
f 693/6/1 694/9/1 695/12/1 696/25/1
f 697/9/1 698/10/1 699/11/1 700/12/1
f 701/6/1 702/9/1 703/12/1 704/25/1
f 705/9/1 706/10/1 707/11/1 708/12/1
f 709/6/1 710/9/1 711/12/1 712/25/1
f 713/9/1 714/10/1 715/11/1 716/12/1
f 717/6/1 718/9/1 719/12/1 720/25/1
f 721/9/1 722/10/1 723/11/1 724/12/1
f 725/6/1 726/9/1 727/12/1 728/25/1
f 729/9/1 730/10/1 731/11/1 732/12/1
f 733/6/1 734/9/1 735/12/1 736/25/1
f 737/12/1 738/11/1 739/107/1 740/108/1
f 741/3/1 742/6/1 743/25/1 744/86/1
f 745/3/1 746/6/1 747/25/1 748/86/1
f 749/3/1 750/6/1 751/25/1 752/86/1
f 753/3/1 754/6/1 755/25/1 756/86/1
f 757/3/1 758/6/1 759/25/1 760/86/1
f 761/3/1 762/6/1 763/25/1 764/86/1
f 765/3/1 766/6/1 767/25/1 768/86/1
f 769/3/1 770/6/1 771/25/1 772/86/1
f 773/3/1 774/6/1 775/25/1 776/86/1
f 777/3/1 778/6/1 779/25/1 780/86/1
f 781/3/1 782/6/1 783/25/1 784/86/1
f 785/3/1 786/6/1 787/25/1 788/86/1
f 789/3/1 790/6/1 791/25/1 792/86/1
f 793/3/1 794/6/1 795/25/1 796/86/1
f 797/3/1 798/6/1 799/25/1 800/86/1
f 801/3/1 802/6/1 803/25/1 804/86/1
f 805/3/1 806/6/1 807/25/1 808/86/1
f 809/3/1 810/6/1 811/25/1 812/86/1
f 813/3/1 814/6/1 815/25/1 816/86/1
f 817/3/1 818/6/1 819/25/1 820/86/1
f 821/3/1 822/6/1 823/25/1 824/86/1
f 825/3/1 826/6/1 827/25/1 828/86/1
f 829/3/1 830/6/1 831/25/1 832/86/1
f 833/108/1 834/107/1 835/109/1 836/110/1

