# Tiled2Unity generated file. Do not modify by hand.
# Wavefront file for 'LessForest_mesh_0002.obj'

# Vertices (Count = 392)
v 0 -1 0
v -1 -1 0
v -1 0 0
v 0 0 0
v -1 -1 0
v -2 -1 0
v -2 0 0
v -1 0 0
v -2 -1 0
v -3 -1 0
v -3 0 0
v -2 0 0
v -3 -1 0
v -4 -1 0
v -4 0 0
v -3 0 0
v -4 -1 0
v -5 -1 0
v -5 0 0
v -4 0 0
v -5 -1 0
v -6 -1 0
v -6 0 0
v -5 0 0
v -6 -1 0
v -7 -1 0
v -7 0 0
v -6 0 0
v -7 -1 0
v -8 -1 0
v -8 0 0
v -7 0 0
v -8 -1 0
v -9 -1 0
v -9 0 0
v -8 0 0
v -9 -1 0
v -10 -1 0
v -10 0 0
v -9 0 0
v -10 -1 0
v -11 -1 0
v -11 0 0
v -10 0 0
v -11 -1 0
v -12 -1 0
v -12 0 0
v -11 0 0
v -12 -1 0
v -13 -1 0
v -13 0 0
v -12 0 0
v -13 -1 0
v -14 -1 0
v -14 0 0
v -13 0 0
v -14 -1 0
v -15 -1 0
v -15 0 0
v -14 0 0
v -15 -1 0
v -16 -1 0
v -16 0 0
v -15 0 0
v -16 -1 0
v -17 -1 0
v -17 0 0
v -16 0 0
v -17 -1 0
v -18 -1 0
v -18 0 0
v -17 0 0
v -18 -1 0
v -19 -1 0
v -19 0 0
v -18 0 0
v -19 -1 0
v -20 -1 0
v -20 0 0
v -19 0 0
v -20 -1 0
v -21 -1 0
v -21 0 0
v -20 0 0
v -21 -1 0
v -22 -1 0
v -22 0 0
v -21 0 0
v -22 -1 0
v -23 -1 0
v -23 0 0
v -22 0 0
v -23 -1 0
v -24 -1 0
v -24 0 0
v -23 0 0
v -24 -1 0
v -25 -1 0
v -25 0 0
v -24 0 0
v 0 -2 0
v -1 -2 0
v -1 -1 0
v 0 -1 0
v -24 -2 0
v -25 -2 0
v -25 -1 0
v -24 -1 0
v 0 -3 0
v -1 -3 0
v -1 -2 0
v 0 -2 0
v -24 -3 0
v -25 -3 0
v -25 -2 0
v -24 -2 0
v 0 -4 0
v -1 -4 0
v -1 -3 0
v 0 -3 0
v -24 -4 0
v -25 -4 0
v -25 -3 0
v -24 -3 0
v 0 -5 0
v -1 -5 0
v -1 -4 0
v 0 -4 0
v -24 -5 0
v -25 -5 0
v -25 -4 0
v -24 -4 0
v 0 -6 0
v -1 -6 0
v -1 -5 0
v 0 -5 0
v -24 -6 0
v -25 -6 0
v -25 -5 0
v -24 -5 0
v 0 -7 0
v -1 -7 0
v -1 -6 0
v 0 -6 0
v -24 -7 0
v -25 -7 0
v -25 -6 0
v -24 -6 0
v 0 -8 0
v -1 -8 0
v -1 -7 0
v 0 -7 0
v -24 -8 0
v -25 -8 0
v -25 -7 0
v -24 -7 0
v 0 -9 0
v -1 -9 0
v -1 -8 0
v 0 -8 0
v -24 -9 0
v -25 -9 0
v -25 -8 0
v -24 -8 0
v 0 -10 0
v -1 -10 0
v -1 -9 0
v 0 -9 0
v -24 -10 0
v -25 -10 0
v -25 -9 0
v -24 -9 0
v 0 -11 0
v -1 -11 0
v -1 -10 0
v 0 -10 0
v -24 -11 0
v -25 -11 0
v -25 -10 0
v -24 -10 0
v 0 -12 0
v -1 -12 0
v -1 -11 0
v 0 -11 0
v -2 -12 0
v -3 -12 0
v -3 -11 0
v -2 -11 0
v -3 -12 0
v -4 -12 0
v -4 -11 0
v -3 -11 0
v -4 -12 0
v -5 -12 0
v -5 -11 0
v -4 -11 0
v -24 -12 0
v -25 -12 0
v -25 -11 0
v -24 -11 0
v 0 -13 0
v -1 -13 0
v -1 -12 0
v 0 -12 0
v -24 -13 0
v -25 -13 0
v -25 -12 0
v -24 -12 0
v -24 -14 0
v -25 -14 0
v -25 -13 0
v -24 -13 0
v -24 -15 0
v -25 -15 0
v -25 -14 0
v -24 -14 0
v 0 -16 0
v -1 -16 0
v -1 -15 0
v 0 -15 0
v -24 -16 0
v -25 -16 0
v -25 -15 0
v -24 -15 0
v 0 -17 0
v -1 -17 0
v -1 -16 0
v 0 -16 0
v -24 -17 0
v -25 -17 0
v -25 -16 0
v -24 -16 0
v 0 -18 0
v -1 -18 0
v -1 -17 0
v 0 -17 0
v -24 -18 0
v -25 -18 0
v -25 -17 0
v -24 -17 0
v 0 -19 0
v -1 -19 0
v -1 -18 0
v 0 -18 0
v -24 -19 0
v -25 -19 0
v -25 -18 0
v -24 -18 0
v 0 -20 0
v -1 -20 0
v -1 -19 0
v 0 -19 0
v -24 -20 0
v -25 -20 0
v -25 -19 0
v -24 -19 0
v 0 -21 0
v -1 -21 0
v -1 -20 0
v 0 -20 0
v -19 -21 0
v -20 -21 0
v -20 -20 0
v -19 -20 0
v -20 -21 0
v -21 -21 0
v -21 -20 0
v -20 -20 0
v -21 -21 0
v -22 -21 0
v -22 -20 0
v -21 -20 0
v -24 -21 0
v -25 -21 0
v -25 -20 0
v -24 -20 0
v 0 -22 0
v -1 -22 0
v -1 -21 0
v 0 -21 0
v -21 -22 0
v -22 -22 0
v -22 -21 0
v -21 -21 0
v -22 -22 0
v -23 -22 0
v -23 -21 0
v -22 -21 0
v -23 -22 0
v -24 -22 0
v -24 -21 0
v -23 -21 0
v -24 -22 0
v -25 -22 0
v -25 -21 0
v -24 -21 0
v 0 -23 0
v -1 -23 0
v -1 -22 0
v 0 -22 0
v -7 -23 0
v -8 -23 0
v -8 -22 0
v -7 -22 0
v -8 -23 0
v -9 -23 0
v -9 -22 0
v -8 -22 0
v -9 -23 0
v -10 -23 0
v -10 -22 0
v -9 -22 0
v -24 -23 0
v -25 -23 0
v -25 -22 0
v -24 -22 0
v 0 -24 0
v -1 -24 0
v -1 -23 0
v 0 -23 0
v -8 -24 0
v -9 -24 0
v -9 -23 0
v -8 -23 0
v -9 -24 0
v -10 -24 0
v -10 -23 0
v -9 -23 0
v -10 -24 0
v -11 -24 0
v -11 -23 0
v -10 -23 0
v -24 -24 0
v -25 -24 0
v -25 -23 0
v -24 -23 0
v 0 -25 0
v -1 -25 0
v -1 -24 0
v 0 -24 0
v -1 -25 0
v -2 -25 0
v -2 -24 0
v -1 -24 0
v -2 -25 0
v -3 -25 0
v -3 -24 0
v -2 -24 0
v -3 -25 0
v -4 -25 0
v -4 -24 0
v -3 -24 0
v -4 -25 0
v -5 -25 0
v -5 -24 0
v -4 -24 0
v -5 -25 0
v -6 -25 0
v -6 -24 0
v -5 -24 0
v -6 -25 0
v -7 -25 0
v -7 -24 0
v -6 -24 0
v -7 -25 0
v -8 -25 0
v -8 -24 0
v -7 -24 0
v -8 -25 0
v -9 -25 0
v -9 -24 0
v -8 -24 0
v -9 -25 0
v -10 -25 0
v -10 -24 0
v -9 -24 0
v -10 -25 0
v -11 -25 0
v -11 -24 0
v -10 -24 0
v -11 -25 0
v -12 -25 0
v -12 -24 0
v -11 -24 0
v -14 -25 0
v -15 -25 0
v -15 -24 0
v -14 -24 0
v -24 -25 0
v -25 -25 0
v -25 -24 0
v -24 -24 0

# Texture cooridinates (Count = 30)
vt 0.1 0.4444444
vt 0.125 0.4444444
vt 0.125 0.4722222
vt 0.1 0.4722222
vt 0.15 0.4444444
vt 0.15 0.4722222
vt 0.075 0.4444444
vt 0.075 0.4722222
vt 0.175 0.4722222
vt 0.2 0.4722222
vt 0.2 0.5
vt 0.175 0.5
vt 0.15 0.5
vt 0.075 0.8333333
vt 0.1 0.8333333
vt 0.1 0.8611111
vt 0.075 0.8611111
vt 0.125 0.8333333
vt 0.125 0.8611111
vt 0.15 0.8333333
vt 0.15 0.8611111
vt 0.175 0.5277778
vt 0.15 0.5277778
vt 0.175 0.5555556
vt 0.15 0.5555556
vt 0.2 0.5277778
vt 0.125 0.5
vt 0.125 0.5277778
vt 0.125 0.5555556
vt 0.2 0.5555556

# Normal
vn 0 0 -1

# Mesh description
g LessForest_mesh_0002

# Faces
f 1/1/1 2/2/1 3/3/1 4/4/1
f 5/2/1 6/5/1 7/6/1 8/3/1
f 9/2/1 10/5/1 11/6/1 12/3/1
f 13/2/1 14/5/1 15/6/1 16/3/1
f 17/2/1 18/5/1 19/6/1 20/3/1
f 21/2/1 22/5/1 23/6/1 24/3/1
f 25/2/1 26/5/1 27/6/1 28/3/1
f 29/2/1 30/5/1 31/6/1 32/3/1
f 33/2/1 34/5/1 35/6/1 36/3/1
f 37/2/1 38/5/1 39/6/1 40/3/1
f 41/2/1 42/5/1 43/6/1 44/3/1
f 45/2/1 46/5/1 47/6/1 48/3/1
f 49/2/1 50/5/1 51/6/1 52/3/1
f 53/2/1 54/5/1 55/6/1 56/3/1
f 57/2/1 58/5/1 59/6/1 60/3/1
f 61/2/1 62/5/1 63/6/1 64/3/1
f 65/2/1 66/5/1 67/6/1 68/3/1
f 69/2/1 70/5/1 71/6/1 72/3/1
f 73/2/1 74/5/1 75/6/1 76/3/1
f 77/2/1 78/5/1 79/6/1 80/3/1
f 81/2/1 82/5/1 83/6/1 84/3/1
f 85/2/1 86/5/1 87/6/1 88/3/1
f 89/2/1 90/5/1 91/6/1 92/3/1
f 93/2/1 94/5/1 95/6/1 96/3/1
f 97/7/1 98/1/1 99/4/1 100/8/1
f 101/9/1 102/10/1 103/11/1 104/12/1
f 105/6/1 106/9/1 107/12/1 108/13/1
f 109/9/1 110/10/1 111/11/1 112/12/1
f 113/6/1 114/9/1 115/12/1 116/13/1
f 117/9/1 118/10/1 119/11/1 120/12/1
f 121/6/1 122/9/1 123/12/1 124/13/1
f 125/9/1 126/10/1 127/11/1 128/12/1
f 129/6/1 130/9/1 131/12/1 132/13/1
f 133/9/1 134/10/1 135/11/1 136/12/1
f 137/6/1 138/9/1 139/12/1 140/13/1
f 141/9/1 142/10/1 143/11/1 144/12/1
f 145/6/1 146/9/1 147/12/1 148/13/1
f 149/9/1 150/10/1 151/11/1 152/12/1
f 153/6/1 154/9/1 155/12/1 156/13/1
f 157/9/1 158/10/1 159/11/1 160/12/1
f 161/6/1 162/9/1 163/12/1 164/13/1
f 165/9/1 166/10/1 167/11/1 168/12/1
f 169/6/1 170/9/1 171/12/1 172/13/1
f 173/9/1 174/10/1 175/11/1 176/12/1
f 177/6/1 178/9/1 179/12/1 180/13/1
f 181/9/1 182/10/1 183/11/1 184/12/1
f 185/14/1 186/15/1 187/16/1 188/17/1
f 189/15/1 190/18/1 191/19/1 192/16/1
f 193/18/1 194/20/1 195/21/1 196/19/1
f 197/6/1 198/9/1 199/12/1 200/13/1
f 201/13/1 202/12/1 203/22/1 204/23/1
f 205/6/1 206/9/1 207/12/1 208/13/1
f 209/6/1 210/9/1 211/12/1 212/13/1
f 213/6/1 214/9/1 215/12/1 216/13/1
f 217/23/1 218/22/1 219/24/1 220/25/1
f 221/6/1 222/9/1 223/12/1 224/13/1
f 225/9/1 226/10/1 227/11/1 228/12/1
f 229/6/1 230/9/1 231/12/1 232/13/1
f 233/9/1 234/10/1 235/11/1 236/12/1
f 237/6/1 238/9/1 239/12/1 240/13/1
f 241/9/1 242/10/1 243/11/1 244/12/1
f 245/6/1 246/9/1 247/12/1 248/13/1
f 249/9/1 250/10/1 251/11/1 252/12/1
f 253/6/1 254/9/1 255/12/1 256/13/1
f 257/9/1 258/10/1 259/11/1 260/12/1
f 261/14/1 262/15/1 263/16/1 264/17/1
f 265/15/1 266/18/1 267/19/1 268/16/1
f 269/18/1 270/20/1 271/21/1 272/19/1
f 273/6/1 274/9/1 275/12/1 276/13/1
f 277/9/1 278/10/1 279/11/1 280/12/1
f 281/14/1 282/15/1 283/16/1 284/17/1
f 285/15/1 286/18/1 287/19/1 288/16/1
f 289/18/1 290/20/1 291/21/1 292/19/1
f 293/6/1 294/9/1 295/12/1 296/13/1
f 297/9/1 298/10/1 299/11/1 300/12/1
f 301/14/1 302/15/1 303/16/1 304/17/1
f 305/15/1 306/18/1 307/19/1 308/16/1
f 309/18/1 310/20/1 311/21/1 312/19/1
f 313/6/1 314/9/1 315/12/1 316/13/1
f 317/9/1 318/10/1 319/11/1 320/12/1
f 321/14/1 322/15/1 323/16/1 324/17/1
f 325/15/1 326/18/1 327/19/1 328/16/1
f 329/18/1 330/20/1 331/21/1 332/19/1
f 333/6/1 334/9/1 335/12/1 336/13/1
f 337/12/1 338/11/1 339/26/1 340/22/1
f 341/3/1 342/6/1 343/13/1 344/27/1
f 345/3/1 346/6/1 347/13/1 348/27/1
f 349/3/1 350/6/1 351/13/1 352/27/1
f 353/3/1 354/6/1 355/13/1 356/27/1
f 357/3/1 358/6/1 359/13/1 360/27/1
f 361/3/1 362/6/1 363/13/1 364/27/1
f 365/3/1 366/6/1 367/13/1 368/27/1
f 369/3/1 370/6/1 371/13/1 372/27/1
f 373/3/1 374/6/1 375/13/1 376/27/1
f 377/3/1 378/6/1 379/13/1 380/27/1
f 381/23/1 382/22/1 383/24/1 384/25/1
f 385/28/1 386/23/1 387/25/1 388/29/1
f 389/22/1 390/26/1 391/30/1 392/24/1

