# Tiled2Unity generated file. Do not modify by hand.
# Wavefront file for 'RiverSpace_mesh_0003.obj'

# Vertices (Count = 448)
v 0 -1 0
v -1 -1 0
v -1 0 0
v 0 0 0
v -1 -1 0
v -2 -1 0
v -2 0 0
v -1 0 0
v -2 -1 0
v -3 -1 0
v -3 0 0
v -2 0 0
v -3 -1 0
v -4 -1 0
v -4 0 0
v -3 0 0
v -4 -1 0
v -5 -1 0
v -5 0 0
v -4 0 0
v -5 -1 0
v -6 -1 0
v -6 0 0
v -5 0 0
v -6 -1 0
v -7 -1 0
v -7 0 0
v -6 0 0
v -7 -1 0
v -8 -1 0
v -8 0 0
v -7 0 0
v -8 -1 0
v -9 -1 0
v -9 0 0
v -8 0 0
v -9 -1 0
v -10 -1 0
v -10 0 0
v -9 0 0
v -10 -1 0
v -11 -1 0
v -11 0 0
v -10 0 0
v -11 -1 0
v -12 -1 0
v -12 0 0
v -11 0 0
v -14 -1 0
v -15 -1 0
v -15 0 0
v -14 0 0
v -15 -1 0
v -16 -1 0
v -16 0 0
v -15 0 0
v -16 -1 0
v -17 -1 0
v -17 0 0
v -16 0 0
v -17 -1 0
v -18 -1 0
v -18 0 0
v -17 0 0
v -18 -1 0
v -19 -1 0
v -19 0 0
v -18 0 0
v -19 -1 0
v -20 -1 0
v -20 0 0
v -19 0 0
v -20 -1 0
v -21 -1 0
v -21 0 0
v -20 0 0
v -21 -1 0
v -22 -1 0
v -22 0 0
v -21 0 0
v -22 -1 0
v -23 -1 0
v -23 0 0
v -22 0 0
v -23 -1 0
v -24 -1 0
v -24 0 0
v -23 0 0
v -24 -1 0
v -25 -1 0
v -25 0 0
v -24 0 0
v 0 -2 0
v -1 -2 0
v -1 -1 0
v 0 -1 0
v -24 -2 0
v -25 -2 0
v -25 -1 0
v -24 -1 0
v 0 -3 0
v -1 -3 0
v -1 -2 0
v 0 -2 0
v -24 -3 0
v -25 -3 0
v -25 -2 0
v -24 -2 0
v 0 -4 0
v -1 -4 0
v -1 -3 0
v 0 -3 0
v -24 -4 0
v -25 -4 0
v -25 -3 0
v -24 -3 0
v 0 -5 0
v -1 -5 0
v -1 -4 0
v 0 -4 0
v -24 -5 0
v -25 -5 0
v -25 -4 0
v -24 -4 0
v 0 -6 0
v -1 -6 0
v -1 -5 0
v 0 -5 0
v -24 -6 0
v -25 -6 0
v -25 -5 0
v -24 -5 0
v 0 -7 0
v -1 -7 0
v -1 -6 0
v 0 -6 0
v -24 -7 0
v -25 -7 0
v -25 -6 0
v -24 -6 0
v 0 -8 0
v -1 -8 0
v -1 -7 0
v 0 -7 0
v -24 -8 0
v -25 -8 0
v -25 -7 0
v -24 -7 0
v 0 -9 0
v -1 -9 0
v -1 -8 0
v 0 -8 0
v 0 -10 0
v -1 -10 0
v -1 -9 0
v 0 -9 0
v 0 -11 0
v -1 -11 0
v -1 -10 0
v 0 -10 0
v -24 -13 0
v -25 -13 0
v -25 -12 0
v -24 -12 0
v -21 -14 0
v -22 -14 0
v -22 -13 0
v -21 -13 0
v -24 -14 0
v -25 -14 0
v -25 -13 0
v -24 -13 0
v 0 -15 0
v -1 -15 0
v -1 -14 0
v 0 -14 0
v -19 -15 0
v -20 -15 0
v -20 -14 0
v -19 -14 0
v -22 -15 0
v -23 -15 0
v -23 -14 0
v -22 -14 0
v -24 -15 0
v -25 -15 0
v -25 -14 0
v -24 -14 0
v 0 -16 0
v -1 -16 0
v -1 -15 0
v 0 -15 0
v -12 -16 0
v -13 -16 0
v -13 -15 0
v -12 -15 0
v -13 -16 0
v -14 -16 0
v -14 -15 0
v -13 -15 0
v -14 -16 0
v -15 -16 0
v -15 -15 0
v -14 -15 0
v -15 -16 0
v -16 -16 0
v -16 -15 0
v -15 -15 0
v -16 -16 0
v -17 -16 0
v -17 -15 0
v -16 -15 0
v -17 -16 0
v -18 -16 0
v -18 -15 0
v -17 -15 0
v -20 -16 0
v -21 -16 0
v -21 -15 0
v -20 -15 0
v -23 -16 0
v -24 -16 0
v -24 -15 0
v -23 -15 0
v -24 -16 0
v -25 -16 0
v -25 -15 0
v -24 -15 0
v 0 -17 0
v -1 -17 0
v -1 -16 0
v 0 -16 0
v -12 -17 0
v -13 -17 0
v -13 -16 0
v -12 -16 0
v -13 -17 0
v -14 -17 0
v -14 -16 0
v -13 -16 0
v -14 -17 0
v -15 -17 0
v -15 -16 0
v -14 -16 0
v -15 -17 0
v -16 -17 0
v -16 -16 0
v -15 -16 0
v -16 -17 0
v -17 -17 0
v -17 -16 0
v -16 -16 0
v -17 -17 0
v -18 -17 0
v -18 -16 0
v -17 -16 0
v -19 -17 0
v -20 -17 0
v -20 -16 0
v -19 -16 0
v -21 -17 0
v -22 -17 0
v -22 -16 0
v -21 -16 0
v -22 -17 0
v -23 -17 0
v -23 -16 0
v -22 -16 0
v -24 -17 0
v -25 -17 0
v -25 -16 0
v -24 -16 0
v 0 -18 0
v -1 -18 0
v -1 -17 0
v 0 -17 0
v -12 -18 0
v -13 -18 0
v -13 -17 0
v -12 -17 0
v -13 -18 0
v -14 -18 0
v -14 -17 0
v -13 -17 0
v -14 -18 0
v -15 -18 0
v -15 -17 0
v -14 -17 0
v -15 -18 0
v -16 -18 0
v -16 -17 0
v -15 -17 0
v -16 -18 0
v -17 -18 0
v -17 -17 0
v -16 -17 0
v -17 -18 0
v -18 -18 0
v -18 -17 0
v -17 -17 0
v -20 -18 0
v -21 -18 0
v -21 -17 0
v -20 -17 0
v -24 -18 0
v -25 -18 0
v -25 -17 0
v -24 -17 0
v 0 -19 0
v -1 -19 0
v -1 -18 0
v 0 -18 0
v -22 -19 0
v -23 -19 0
v -23 -18 0
v -22 -18 0
v -24 -19 0
v -25 -19 0
v -25 -18 0
v -24 -18 0
v 0 -20 0
v -1 -20 0
v -1 -19 0
v 0 -19 0
v 0 -21 0
v -1 -21 0
v -1 -20 0
v 0 -20 0
v 0 -22 0
v -1 -22 0
v -1 -21 0
v 0 -21 0
v 0 -23 0
v -1 -23 0
v -1 -22 0
v 0 -22 0
v -24 -23 0
v -25 -23 0
v -25 -22 0
v -24 -22 0
v 0 -24 0
v -1 -24 0
v -1 -23 0
v 0 -23 0
v -24 -24 0
v -25 -24 0
v -25 -23 0
v -24 -23 0
v 0 -25 0
v -1 -25 0
v -1 -24 0
v 0 -24 0
v -1 -25 0
v -2 -25 0
v -2 -24 0
v -1 -24 0
v -2 -25 0
v -3 -25 0
v -3 -24 0
v -2 -24 0
v -3 -25 0
v -4 -25 0
v -4 -24 0
v -3 -24 0
v -4 -25 0
v -5 -25 0
v -5 -24 0
v -4 -24 0
v -5 -25 0
v -6 -25 0
v -6 -24 0
v -5 -24 0
v -6 -25 0
v -7 -25 0
v -7 -24 0
v -6 -24 0
v -7 -25 0
v -8 -25 0
v -8 -24 0
v -7 -24 0
v -8 -25 0
v -9 -25 0
v -9 -24 0
v -8 -24 0
v -9 -25 0
v -10 -25 0
v -10 -24 0
v -9 -24 0
v -10 -25 0
v -11 -25 0
v -11 -24 0
v -10 -24 0
v -11 -25 0
v -12 -25 0
v -12 -24 0
v -11 -24 0
v -12 -25 0
v -13 -25 0
v -13 -24 0
v -12 -24 0
v -13 -25 0
v -14 -25 0
v -14 -24 0
v -13 -24 0
v -14 -25 0
v -15 -25 0
v -15 -24 0
v -14 -24 0
v -15 -25 0
v -16 -25 0
v -16 -24 0
v -15 -24 0
v -16 -25 0
v -17 -25 0
v -17 -24 0
v -16 -24 0
v -17 -25 0
v -18 -25 0
v -18 -24 0
v -17 -24 0
v -18 -25 0
v -19 -25 0
v -19 -24 0
v -18 -24 0
v -19 -25 0
v -20 -25 0
v -20 -24 0
v -19 -24 0
v -20 -25 0
v -21 -25 0
v -21 -24 0
v -20 -24 0
v -21 -25 0
v -22 -25 0
v -22 -24 0
v -21 -24 0
v -22 -25 0
v -23 -25 0
v -23 -24 0
v -22 -24 0
v -23 -25 0
v -24 -25 0
v -24 -24 0
v -23 -24 0
v -24 -25 0
v -25 -25 0
v -25 -24 0
v -24 -24 0

# Texture cooridinates (Count = 50)
vt 0.1 0.4444444
vt 0.125 0.4444444
vt 0.125 0.4722222
vt 0.1 0.4722222
vt 0.15 0.4444444
vt 0.15 0.4722222
vt 0.15 0.5
vt 0.175 0.5
vt 0.175 0.5277778
vt 0.15 0.5277778
vt 0.125 0.5
vt 0.125 0.5277778
vt 0.075 0.4444444
vt 0.075 0.4722222
vt 0.175 0.4722222
vt 0.2 0.4722222
vt 0.2 0.5
vt 0.15 0.5555556
vt 0.125 0.5555556
vt 0.05 0.6388889
vt 0.075 0.6388889
vt 0.075 0.6666666
vt 0.05 0.6666666
vt 0.175 0.5555556
vt 0 0.75
vt 0.025 0.75
vt 0.025 0.7777778
vt 0 0.7777778
vt 0.1 0.6666666
vt 0.1 0.6944444
vt 0.075 0.6944444
vt 0.2 0.8055556
vt 0.225 0.8055556
vt 0.225 0.8333333
vt 0.2 0.8333333
vt 0.25 0.8055556
vt 0.25 0.8333333
vt 0.275 0.8055556
vt 0.275 0.8333333
vt 0.2 0.7777778
vt 0.225 0.7777778
vt 0.25 0.7777778
vt 0.275 0.7777778
vt 0.1 0.6388889
vt 0.2 0.75
vt 0.225 0.75
vt 0.25 0.75
vt 0.275 0.75
vt 0.2 0.5277778
vt 0.2 0.5555556

# Normal
vn 0 0 -1

# Mesh description
g RiverSpace_mesh_0003

# Faces
f 1/1/1 2/2/1 3/3/1 4/4/1
f 5/2/1 6/5/1 7/6/1 8/3/1
f 9/2/1 10/5/1 11/6/1 12/3/1
f 13/2/1 14/5/1 15/6/1 16/3/1
f 17/2/1 18/5/1 19/6/1 20/3/1
f 21/2/1 22/5/1 23/6/1 24/3/1
f 25/2/1 26/5/1 27/6/1 28/3/1
f 29/2/1 30/5/1 31/6/1 32/3/1
f 33/2/1 34/5/1 35/6/1 36/3/1
f 37/2/1 38/5/1 39/6/1 40/3/1
f 41/2/1 42/5/1 43/6/1 44/3/1
f 45/7/1 46/8/1 47/9/1 48/10/1
f 49/11/1 50/7/1 51/10/1 52/12/1
f 53/2/1 54/5/1 55/6/1 56/3/1
f 57/2/1 58/5/1 59/6/1 60/3/1
f 61/2/1 62/5/1 63/6/1 64/3/1
f 65/2/1 66/5/1 67/6/1 68/3/1
f 69/2/1 70/5/1 71/6/1 72/3/1
f 73/2/1 74/5/1 75/6/1 76/3/1
f 77/2/1 78/5/1 79/6/1 80/3/1
f 81/2/1 82/5/1 83/6/1 84/3/1
f 85/2/1 86/5/1 87/6/1 88/3/1
f 89/13/1 90/1/1 91/4/1 92/14/1
f 93/15/1 94/16/1 95/17/1 96/8/1
f 97/6/1 98/15/1 99/8/1 100/7/1
f 101/15/1 102/16/1 103/17/1 104/8/1
f 105/6/1 106/15/1 107/8/1 108/7/1
f 109/15/1 110/16/1 111/17/1 112/8/1
f 113/6/1 114/15/1 115/8/1 116/7/1
f 117/15/1 118/16/1 119/17/1 120/8/1
f 121/6/1 122/15/1 123/8/1 124/7/1
f 125/15/1 126/16/1 127/17/1 128/8/1
f 129/6/1 130/15/1 131/8/1 132/7/1
f 133/15/1 134/16/1 135/17/1 136/8/1
f 137/6/1 138/15/1 139/8/1 140/7/1
f 141/15/1 142/16/1 143/17/1 144/8/1
f 145/11/1 146/7/1 147/10/1 148/12/1
f 149/15/1 150/16/1 151/17/1 152/8/1
f 153/15/1 154/16/1 155/17/1 156/8/1
f 157/7/1 158/8/1 159/9/1 160/10/1
f 161/12/1 162/10/1 163/18/1 164/19/1
f 165/20/1 166/21/1 167/22/1 168/23/1
f 169/6/1 170/15/1 171/8/1 172/7/1
f 173/10/1 174/9/1 175/24/1 176/18/1
f 177/25/1 178/26/1 179/27/1 180/28/1
f 181/22/1 182/29/1 183/30/1 184/31/1
f 185/6/1 186/15/1 187/8/1 188/7/1
f 189/15/1 190/16/1 191/17/1 192/8/1
f 193/32/1 194/33/1 195/34/1 196/35/1
f 197/33/1 198/36/1 199/37/1 200/34/1
f 201/36/1 202/38/1 203/39/1 204/37/1
f 205/32/1 206/33/1 207/34/1 208/35/1
f 209/33/1 210/36/1 211/37/1 212/34/1
f 213/36/1 214/38/1 215/39/1 216/37/1
f 217/25/1 218/26/1 219/27/1 220/28/1
f 221/20/1 222/21/1 223/22/1 224/23/1
f 225/6/1 226/15/1 227/8/1 228/7/1
f 229/15/1 230/16/1 231/17/1 232/8/1
f 233/40/1 234/41/1 235/33/1 236/32/1
f 237/41/1 238/42/1 239/36/1 240/33/1
f 241/42/1 242/43/1 243/38/1 244/36/1
f 245/40/1 246/41/1 247/33/1 248/32/1
f 249/41/1 250/42/1 251/36/1 252/33/1
f 253/42/1 254/43/1 255/38/1 256/36/1
f 257/21/1 258/44/1 259/29/1 260/22/1
f 261/20/1 262/21/1 263/22/1 264/23/1
f 265/25/1 266/26/1 267/27/1 268/28/1
f 269/6/1 270/15/1 271/8/1 272/7/1
f 273/15/1 274/16/1 275/17/1 276/8/1
f 277/45/1 278/46/1 279/41/1 280/40/1
f 281/46/1 282/47/1 283/42/1 284/41/1
f 285/47/1 286/48/1 287/43/1 288/42/1
f 289/45/1 290/46/1 291/41/1 292/40/1
f 293/46/1 294/47/1 295/42/1 296/41/1
f 297/47/1 298/48/1 299/43/1 300/42/1
f 301/22/1 302/29/1 303/30/1 304/31/1
f 305/6/1 306/15/1 307/8/1 308/7/1
f 309/15/1 310/16/1 311/17/1 312/8/1
f 313/21/1 314/44/1 315/29/1 316/22/1
f 317/11/1 318/7/1 319/10/1 320/12/1
f 321/15/1 322/16/1 323/17/1 324/8/1
f 325/15/1 326/16/1 327/17/1 328/8/1
f 329/15/1 330/16/1 331/17/1 332/8/1
f 333/15/1 334/16/1 335/17/1 336/8/1
f 337/12/1 338/10/1 339/18/1 340/19/1
f 341/15/1 342/16/1 343/17/1 344/8/1
f 345/6/1 346/15/1 347/8/1 348/7/1
f 349/8/1 350/17/1 351/49/1 352/9/1
f 353/3/1 354/6/1 355/7/1 356/11/1
f 357/3/1 358/6/1 359/7/1 360/11/1
f 361/3/1 362/6/1 363/7/1 364/11/1
f 365/3/1 366/6/1 367/7/1 368/11/1
f 369/3/1 370/6/1 371/7/1 372/11/1
f 373/3/1 374/6/1 375/7/1 376/11/1
f 377/3/1 378/6/1 379/7/1 380/11/1
f 381/3/1 382/6/1 383/7/1 384/11/1
f 385/3/1 386/6/1 387/7/1 388/11/1
f 389/3/1 390/6/1 391/7/1 392/11/1
f 393/3/1 394/6/1 395/7/1 396/11/1
f 397/3/1 398/6/1 399/7/1 400/11/1
f 401/3/1 402/6/1 403/7/1 404/11/1
f 405/3/1 406/6/1 407/7/1 408/11/1
f 409/3/1 410/6/1 411/7/1 412/11/1
f 413/3/1 414/6/1 415/7/1 416/11/1
f 417/3/1 418/6/1 419/7/1 420/11/1
f 421/3/1 422/6/1 423/7/1 424/11/1
f 425/3/1 426/6/1 427/7/1 428/11/1
f 429/3/1 430/6/1 431/7/1 432/11/1
f 433/3/1 434/6/1 435/7/1 436/11/1
f 437/3/1 438/6/1 439/7/1 440/11/1
f 441/3/1 442/6/1 443/7/1 444/11/1
f 445/9/1 446/49/1 447/50/1 448/24/1

