# Tiled2Unity generated file. Do not modify by hand.
# Wavefront file for 'RiverSpace_mesh_0002.obj'

# Vertices (Count = 24)
v -14 -16 0
v -15 -16 0
v -15 -15 0
v -14 -15 0
v -15 -16 0
v -16 -16 0
v -16 -15 0
v -15 -15 0
v -14 -17 0
v -15 -17 0
v -15 -16 0
v -14 -16 0
v -15 -17 0
v -16 -17 0
v -16 -16 0
v -15 -16 0
v -14 -18 0
v -15 -18 0
v -15 -17 0
v -14 -17 0
v -15 -18 0
v -16 -18 0
v -16 -17 0
v -15 -17 0

# Texture cooridinates (Count = 8)
vt 0.225 0.8055556
vt 0.25 0.8055556
vt 0.25 0.8333333
vt 0.225 0.8333333
vt 0.225 0.7777778
vt 0.25 0.7777778
vt 0.225 0.75
vt 0.25 0.75

# Normal
vn 0 0 -1

# Mesh description
g RiverSpace_mesh_0002

# Faces
f 1/1/1 2/2/1 3/3/1 4/4/1
f 5/1/1 6/2/1 7/3/1 8/4/1
f 9/5/1 10/6/1 11/2/1 12/1/1
f 13/5/1 14/6/1 15/2/1 16/1/1
f 17/7/1 18/8/1 19/6/1 20/5/1
f 21/7/1 22/8/1 23/6/1 24/5/1

