# Tiled2Unity generated file. Do not modify by hand.
# Wavefront file for 'OverworldTest_mesh_0002.obj'

# Vertices (Count = 676)
v 0 -1 0
v -1 -1 0
v -1 0 0
v 0 0 0
v -1 -1 0
v -2 -1 0
v -2 0 0
v -1 0 0
v -2 -1 0
v -3 -1 0
v -3 0 0
v -2 0 0
v -3 -1 0
v -4 -1 0
v -4 0 0
v -3 0 0
v -4 -1 0
v -5 -1 0
v -5 0 0
v -4 0 0
v -5 -1 0
v -6 -1 0
v -6 0 0
v -5 0 0
v -6 -1 0
v -7 -1 0
v -7 0 0
v -6 0 0
v -7 -1 0
v -8 -1 0
v -8 0 0
v -7 0 0
v -8 -1 0
v -9 -1 0
v -9 0 0
v -8 0 0
v -9 -1 0
v -10 -1 0
v -10 0 0
v -9 0 0
v -10 -1 0
v -11 -1 0
v -11 0 0
v -10 0 0
v -13 -1 0
v -14 -1 0
v -14 0 0
v -13 0 0
v -14 -1 0
v -15 -1 0
v -15 0 0
v -14 0 0
v -15 -1 0
v -16 -1 0
v -16 0 0
v -15 0 0
v -16 -1 0
v -17 -1 0
v -17 0 0
v -16 0 0
v -17 -1 0
v -18 -1 0
v -18 0 0
v -17 0 0
v -18 -1 0
v -19 -1 0
v -19 0 0
v -18 0 0
v -19 -1 0
v -20 -1 0
v -20 0 0
v -19 0 0
v -20 -1 0
v -21 -1 0
v -21 0 0
v -20 0 0
v -21 -1 0
v -22 -1 0
v -22 0 0
v -21 0 0
v -22 -1 0
v -23 -1 0
v -23 0 0
v -22 0 0
v -23 -1 0
v -24 -1 0
v -24 0 0
v -23 0 0
v -24 -1 0
v -25 -1 0
v -25 0 0
v -24 0 0
v 0 -2 0
v -1 -2 0
v -1 -1 0
v 0 -1 0
v -24 -2 0
v -25 -2 0
v -25 -1 0
v -24 -1 0
v 0 -3 0
v -1 -3 0
v -1 -2 0
v 0 -2 0
v -1 -3 0
v -2 -3 0
v -2 -2 0
v -1 -2 0
v -2 -3 0
v -3 -3 0
v -3 -2 0
v -2 -2 0
v -3 -3 0
v -4 -3 0
v -4 -2 0
v -3 -2 0
v -4 -3 0
v -5 -3 0
v -5 -2 0
v -4 -2 0
v -5 -3 0
v -6 -3 0
v -6 -2 0
v -5 -2 0
v -6 -3 0
v -7 -3 0
v -7 -2 0
v -6 -2 0
v -7 -3 0
v -8 -3 0
v -8 -2 0
v -7 -2 0
v -8 -3 0
v -9 -3 0
v -9 -2 0
v -8 -2 0
v -9 -3 0
v -10 -3 0
v -10 -2 0
v -9 -2 0
v -24 -3 0
v -25 -3 0
v -25 -2 0
v -24 -2 0
v 0 -4 0
v -1 -4 0
v -1 -3 0
v 0 -3 0
v -1 -4 0
v -2 -4 0
v -2 -3 0
v -1 -3 0
v -2 -4 0
v -3 -4 0
v -3 -3 0
v -2 -3 0
v -3 -4 0
v -4 -4 0
v -4 -3 0
v -3 -3 0
v -4 -4 0
v -5 -4 0
v -5 -3 0
v -4 -3 0
v -5 -4 0
v -6 -4 0
v -6 -3 0
v -5 -3 0
v -6 -4 0
v -7 -4 0
v -7 -3 0
v -6 -3 0
v -9 -4 0
v -10 -4 0
v -10 -3 0
v -9 -3 0
v -24 -4 0
v -25 -4 0
v -25 -3 0
v -24 -3 0
v 0 -5 0
v -1 -5 0
v -1 -4 0
v 0 -4 0
v -1 -5 0
v -2 -5 0
v -2 -4 0
v -1 -4 0
v -2 -5 0
v -3 -5 0
v -3 -4 0
v -2 -4 0
v -3 -5 0
v -4 -5 0
v -4 -4 0
v -3 -4 0
v -4 -5 0
v -5 -5 0
v -5 -4 0
v -4 -4 0
v -5 -5 0
v -6 -5 0
v -6 -4 0
v -5 -4 0
v -6 -5 0
v -7 -5 0
v -7 -4 0
v -6 -4 0
v -9 -5 0
v -10 -5 0
v -10 -4 0
v -9 -4 0
v -24 -5 0
v -25 -5 0
v -25 -4 0
v -24 -4 0
v 0 -6 0
v -1 -6 0
v -1 -5 0
v 0 -5 0
v -1 -6 0
v -2 -6 0
v -2 -5 0
v -1 -5 0
v -2 -6 0
v -3 -6 0
v -3 -5 0
v -2 -5 0
v -3 -6 0
v -4 -6 0
v -4 -5 0
v -3 -5 0
v -4 -6 0
v -5 -6 0
v -5 -5 0
v -4 -5 0
v -5 -6 0
v -6 -6 0
v -6 -5 0
v -5 -5 0
v -6 -6 0
v -7 -6 0
v -7 -5 0
v -6 -5 0
v -7 -6 0
v -8 -6 0
v -8 -5 0
v -7 -5 0
v -8 -6 0
v -9 -6 0
v -9 -5 0
v -8 -5 0
v -9 -6 0
v -10 -6 0
v -10 -5 0
v -9 -5 0
v -15 -6 0
v -16 -6 0
v -16 -5 0
v -15 -5 0
v -16 -6 0
v -17 -6 0
v -17 -5 0
v -16 -5 0
v -24 -6 0
v -25 -6 0
v -25 -5 0
v -24 -5 0
v 0 -7 0
v -1 -7 0
v -1 -6 0
v 0 -6 0
v -1 -7 0
v -2 -7 0
v -2 -6 0
v -1 -6 0
v -2 -7 0
v -3 -7 0
v -3 -6 0
v -2 -6 0
v -3 -7 0
v -4 -7 0
v -4 -6 0
v -3 -6 0
v -4 -7 0
v -5 -7 0
v -5 -6 0
v -4 -6 0
v -5 -7 0
v -6 -7 0
v -6 -6 0
v -5 -6 0
v -6 -7 0
v -7 -7 0
v -7 -6 0
v -6 -6 0
v -7 -7 0
v -8 -7 0
v -8 -6 0
v -7 -6 0
v -8 -7 0
v -9 -7 0
v -9 -6 0
v -8 -6 0
v -9 -7 0
v -10 -7 0
v -10 -6 0
v -9 -6 0
v -15 -7 0
v -16 -7 0
v -16 -6 0
v -15 -6 0
v -16 -7 0
v -17 -7 0
v -17 -6 0
v -16 -6 0
v -24 -7 0
v -25 -7 0
v -25 -6 0
v -24 -6 0
v 0 -8 0
v -1 -8 0
v -1 -7 0
v 0 -7 0
v -1 -8 0
v -2 -8 0
v -2 -7 0
v -1 -7 0
v -2 -8 0
v -3 -8 0
v -3 -7 0
v -2 -7 0
v -3 -8 0
v -4 -8 0
v -4 -7 0
v -3 -7 0
v -4 -8 0
v -5 -8 0
v -5 -7 0
v -4 -7 0
v -5 -8 0
v -6 -8 0
v -6 -7 0
v -5 -7 0
v -6 -8 0
v -7 -8 0
v -7 -7 0
v -6 -7 0
v -7 -8 0
v -8 -8 0
v -8 -7 0
v -7 -7 0
v -8 -8 0
v -9 -8 0
v -9 -7 0
v -8 -7 0
v -9 -8 0
v -10 -8 0
v -10 -7 0
v -9 -7 0
v -24 -8 0
v -25 -8 0
v -25 -7 0
v -24 -7 0
v 0 -9 0
v -1 -9 0
v -1 -8 0
v 0 -8 0
v -1 -9 0
v -2 -9 0
v -2 -8 0
v -1 -8 0
v -9 -9 0
v -10 -9 0
v -10 -8 0
v -9 -8 0
v -24 -9 0
v -25 -9 0
v -25 -8 0
v -24 -8 0
v 0 -10 0
v -1 -10 0
v -1 -9 0
v 0 -9 0
v -1 -10 0
v -2 -10 0
v -2 -9 0
v -1 -9 0
v -9 -10 0
v -10 -10 0
v -10 -9 0
v -9 -9 0
v -24 -10 0
v -25 -10 0
v -25 -9 0
v -24 -9 0
v 0 -11 0
v -1 -11 0
v -1 -10 0
v 0 -10 0
v -1 -11 0
v -2 -11 0
v -2 -10 0
v -1 -10 0
v -7 -11 0
v -8 -11 0
v -8 -10 0
v -7 -10 0
v -8 -11 0
v -9 -11 0
v -9 -10 0
v -8 -10 0
v -9 -11 0
v -10 -11 0
v -10 -10 0
v -9 -10 0
v -24 -11 0
v -25 -11 0
v -25 -10 0
v -24 -10 0
v 0 -12 0
v -1 -12 0
v -1 -11 0
v 0 -11 0
v -1 -12 0
v -2 -12 0
v -2 -11 0
v -1 -11 0
v -2 -12 0
v -3 -12 0
v -3 -11 0
v -2 -11 0
v -3 -12 0
v -4 -12 0
v -4 -11 0
v -3 -11 0
v -7 -12 0
v -8 -12 0
v -8 -11 0
v -7 -11 0
v -24 -12 0
v -25 -12 0
v -25 -11 0
v -24 -11 0
v 0 -13 0
v -1 -13 0
v -1 -12 0
v 0 -12 0
v -24 -13 0
v -25 -13 0
v -25 -12 0
v -24 -12 0
v 0 -15 0
v -1 -15 0
v -1 -14 0
v 0 -14 0
v 0 -16 0
v -1 -16 0
v -1 -15 0
v 0 -15 0
v -24 -16 0
v -25 -16 0
v -25 -15 0
v -24 -15 0
v 0 -17 0
v -1 -17 0
v -1 -16 0
v 0 -16 0
v -24 -17 0
v -25 -17 0
v -25 -16 0
v -24 -16 0
v 0 -18 0
v -1 -18 0
v -1 -17 0
v 0 -17 0
v -20 -18 0
v -21 -18 0
v -21 -17 0
v -20 -17 0
v -21 -18 0
v -22 -18 0
v -22 -17 0
v -21 -17 0
v -24 -18 0
v -25 -18 0
v -25 -17 0
v -24 -17 0
v 0 -19 0
v -1 -19 0
v -1 -18 0
v 0 -18 0
v -3 -19 0
v -4 -19 0
v -4 -18 0
v -3 -18 0
v -4 -19 0
v -5 -19 0
v -5 -18 0
v -4 -18 0
v -20 -19 0
v -21 -19 0
v -21 -18 0
v -20 -18 0
v -21 -19 0
v -22 -19 0
v -22 -18 0
v -21 -18 0
v -24 -19 0
v -25 -19 0
v -25 -18 0
v -24 -18 0
v 0 -20 0
v -1 -20 0
v -1 -19 0
v 0 -19 0
v -3 -20 0
v -4 -20 0
v -4 -19 0
v -3 -19 0
v -4 -20 0
v -5 -20 0
v -5 -19 0
v -4 -19 0
v -24 -20 0
v -25 -20 0
v -25 -19 0
v -24 -19 0
v 0 -21 0
v -1 -21 0
v -1 -20 0
v 0 -20 0
v -24 -21 0
v -25 -21 0
v -25 -20 0
v -24 -20 0
v 0 -22 0
v -1 -22 0
v -1 -21 0
v 0 -21 0
v -10 -22 0
v -11 -22 0
v -11 -21 0
v -10 -21 0
v -11 -22 0
v -12 -22 0
v -12 -21 0
v -11 -21 0
v -24 -22 0
v -25 -22 0
v -25 -21 0
v -24 -21 0
v 0 -23 0
v -1 -23 0
v -1 -22 0
v 0 -22 0
v -10 -23 0
v -11 -23 0
v -11 -22 0
v -10 -22 0
v -11 -23 0
v -12 -23 0
v -12 -22 0
v -11 -22 0
v -24 -23 0
v -25 -23 0
v -25 -22 0
v -24 -22 0
v 0 -24 0
v -1 -24 0
v -1 -23 0
v 0 -23 0
v -24 -24 0
v -25 -24 0
v -25 -23 0
v -24 -23 0
v 0 -25 0
v -1 -25 0
v -1 -24 0
v 0 -24 0
v -1 -25 0
v -2 -25 0
v -2 -24 0
v -1 -24 0
v -2 -25 0
v -3 -25 0
v -3 -24 0
v -2 -24 0
v -3 -25 0
v -4 -25 0
v -4 -24 0
v -3 -24 0
v -4 -25 0
v -5 -25 0
v -5 -24 0
v -4 -24 0
v -5 -25 0
v -6 -25 0
v -6 -24 0
v -5 -24 0
v -6 -25 0
v -7 -25 0
v -7 -24 0
v -6 -24 0
v -7 -25 0
v -8 -25 0
v -8 -24 0
v -7 -24 0
v -8 -25 0
v -9 -25 0
v -9 -24 0
v -8 -24 0
v -9 -25 0
v -10 -25 0
v -10 -24 0
v -9 -24 0
v -10 -25 0
v -11 -25 0
v -11 -24 0
v -10 -24 0
v -11 -25 0
v -12 -25 0
v -12 -24 0
v -11 -24 0
v -12 -25 0
v -13 -25 0
v -13 -24 0
v -12 -24 0
v -13 -25 0
v -14 -25 0
v -14 -24 0
v -13 -24 0
v -14 -25 0
v -15 -25 0
v -15 -24 0
v -14 -24 0
v -15 -25 0
v -16 -25 0
v -16 -24 0
v -15 -24 0
v -16 -25 0
v -17 -25 0
v -17 -24 0
v -16 -24 0
v -17 -25 0
v -18 -25 0
v -18 -24 0
v -17 -24 0
v -18 -25 0
v -19 -25 0
v -19 -24 0
v -18 -24 0
v -19 -25 0
v -20 -25 0
v -20 -24 0
v -19 -24 0
v -20 -25 0
v -21 -25 0
v -21 -24 0
v -20 -24 0
v -21 -25 0
v -22 -25 0
v -22 -24 0
v -21 -24 0
v -22 -25 0
v -23 -25 0
v -23 -24 0
v -22 -24 0
v -23 -25 0
v -24 -25 0
v -24 -24 0
v -23 -24 0
v -24 -25 0
v -25 -25 0
v -25 -24 0
v -24 -24 0

# Texture cooridinates (Count = 95)
vt 0.1 0.4444444
vt 0.125 0.4444444
vt 0.125 0.4722222
vt 0.1 0.4722222
vt 0.15 0.4444444
vt 0.15 0.4722222
vt 0.15 0.5
vt 0.175 0.5
vt 0.175 0.5277778
vt 0.15 0.5277778
vt 0.125 0.5
vt 0.125 0.5277778
vt 0.075 0.4444444
vt 0.075 0.4722222
vt 0.175 0.4722222
vt 0.2 0.4722222
vt 0.2 0.5
vt 0.05 0.5
vt 0.075 0.5
vt 0.075 0.5277778
vt 0.05 0.5277778
vt 0.1 0.5
vt 0.1 0.5277778
vt 0.15 0.9722222
vt 0.175 0.9722222
vt 0.175 1
vt 0.15 1
vt 0.2 0.9722222
vt 0.2 1
vt 0.225 0.9722222
vt 0.225 1
vt 0.25 0.9722222
vt 0.25 1
vt 0.275 0.9722222
vt 0.275 1
vt 0.15 0.9444444
vt 0.175 0.9444444
vt 0.2 0.9444444
vt 0.225 0.9444444
vt 0.25 0.9444444
vt 0.275 0.9444444
vt 0.15 0.9166667
vt 0.175 0.9166667
vt 0.2 0.9166667
vt 0.225 0.9166667
vt 0.25 0.9166667
vt 0.275 0.9166667
vt 0.325 0.8333333
vt 0.35 0.8333333
vt 0.35 0.8611111
vt 0.325 0.8611111
vt 0.375 0.8333333
vt 0.375 0.8611111
vt 0.775 0.8888889
vt 0.8 0.8888889
vt 0.8 0.9166667
vt 0.775 0.9166667
vt 0.825 0.8888889
vt 0.825 0.9166667
vt 0.15 0.8888889
vt 0.175 0.8888889
vt 0.2 0.8888889
vt 0.225 0.8888889
vt 0.25 0.8888889
vt 0.275 0.8888889
vt 0.325 0.8055556
vt 0.35 0.8055556
vt 0.375 0.8055556
vt 0.775 0.8611111
vt 0.8 0.8611111
vt 0.825 0.8611111
vt 0.15 0.8611111
vt 0.175 0.8611111
vt 0.2 0.8611111
vt 0.225 0.8611111
vt 0.25 0.8611111
vt 0.275 0.8611111
vt 0.325 0.7777778
vt 0.35 0.7777778
vt 0.375 0.7777778
vt 0 0.4444444
vt 0.025 0.4444444
vt 0.025 0.4722222
vt 0 0.4722222
vt 0.05 0.4722222
vt 0.05 0.4444444
vt 0 0.9722222
vt 0.025 0.9722222
vt 0.025 1
vt 0 1
vt 0.175 0.5555556
vt 0.15 0.5555556
vt 0.125 0.5555556
vt 0.2 0.5277778
vt 0.2 0.5555556

# Normal
vn 0 0 -1

# Mesh description
g OverworldTest_mesh_0002

# Faces
f 1/1/1 2/2/1 3/3/1 4/4/1
f 5/2/1 6/5/1 7/6/1 8/3/1
f 9/2/1 10/5/1 11/6/1 12/3/1
f 13/2/1 14/5/1 15/6/1 16/3/1
f 17/2/1 18/5/1 19/6/1 20/3/1
f 21/2/1 22/5/1 23/6/1 24/3/1
f 25/2/1 26/5/1 27/6/1 28/3/1
f 29/2/1 30/5/1 31/6/1 32/3/1
f 33/2/1 34/5/1 35/6/1 36/3/1
f 37/2/1 38/5/1 39/6/1 40/3/1
f 41/7/1 42/8/1 43/9/1 44/10/1
f 45/11/1 46/7/1 47/10/1 48/12/1
f 49/2/1 50/5/1 51/6/1 52/3/1
f 53/2/1 54/5/1 55/6/1 56/3/1
f 57/2/1 58/5/1 59/6/1 60/3/1
f 61/2/1 62/5/1 63/6/1 64/3/1
f 65/2/1 66/5/1 67/6/1 68/3/1
f 69/2/1 70/5/1 71/6/1 72/3/1
f 73/2/1 74/5/1 75/6/1 76/3/1
f 77/2/1 78/5/1 79/6/1 80/3/1
f 81/2/1 82/5/1 83/6/1 84/3/1
f 85/2/1 86/5/1 87/6/1 88/3/1
f 89/13/1 90/1/1 91/4/1 92/14/1
f 93/15/1 94/16/1 95/17/1 96/8/1
f 97/6/1 98/15/1 99/8/1 100/7/1
f 101/15/1 102/16/1 103/17/1 104/8/1
f 105/18/1 106/19/1 107/20/1 108/21/1
f 109/22/1 110/11/1 111/12/1 112/23/1
f 113/22/1 114/11/1 115/12/1 116/23/1
f 117/22/1 118/11/1 119/12/1 120/23/1
f 121/22/1 122/11/1 123/12/1 124/23/1
f 125/22/1 126/11/1 127/12/1 128/23/1
f 129/22/1 130/11/1 131/12/1 132/23/1
f 133/22/1 134/11/1 135/12/1 136/23/1
f 137/19/1 138/22/1 139/23/1 140/20/1
f 141/6/1 142/15/1 143/8/1 144/7/1
f 145/15/1 146/16/1 147/17/1 148/8/1
f 149/4/1 150/3/1 151/11/1 152/22/1
f 153/24/1 154/25/1 155/26/1 156/27/1
f 157/25/1 158/28/1 159/29/1 160/26/1
f 161/28/1 162/30/1 163/31/1 164/29/1
f 165/30/1 166/32/1 167/33/1 168/31/1
f 169/32/1 170/34/1 171/35/1 172/33/1
f 173/4/1 174/3/1 175/11/1 176/22/1
f 177/6/1 178/15/1 179/8/1 180/7/1
f 181/15/1 182/16/1 183/17/1 184/8/1
f 185/4/1 186/3/1 187/11/1 188/22/1
f 189/36/1 190/37/1 191/25/1 192/24/1
f 193/37/1 194/38/1 195/28/1 196/25/1
f 197/38/1 198/39/1 199/30/1 200/28/1
f 201/39/1 202/40/1 203/32/1 204/30/1
f 205/40/1 206/41/1 207/34/1 208/32/1
f 209/4/1 210/3/1 211/11/1 212/22/1
f 213/6/1 214/15/1 215/8/1 216/7/1
f 217/15/1 218/16/1 219/17/1 220/8/1
f 221/4/1 222/3/1 223/11/1 224/22/1
f 225/42/1 226/43/1 227/37/1 228/36/1
f 229/43/1 230/44/1 231/38/1 232/37/1
f 233/44/1 234/45/1 235/39/1 236/38/1
f 237/45/1 238/46/1 239/40/1 240/39/1
f 241/46/1 242/47/1 243/41/1 244/40/1
f 245/48/1 246/49/1 247/50/1 248/51/1
f 249/49/1 250/52/1 251/53/1 252/50/1
f 253/4/1 254/3/1 255/11/1 256/22/1
f 257/54/1 258/55/1 259/56/1 260/57/1
f 261/55/1 262/58/1 263/59/1 264/56/1
f 265/6/1 266/15/1 267/8/1 268/7/1
f 269/15/1 270/16/1 271/17/1 272/8/1
f 273/4/1 274/3/1 275/11/1 276/22/1
f 277/60/1 278/61/1 279/43/1 280/42/1
f 281/61/1 282/62/1 283/44/1 284/43/1
f 285/62/1 286/63/1 287/45/1 288/44/1
f 289/63/1 290/64/1 291/46/1 292/45/1
f 293/64/1 294/65/1 295/47/1 296/46/1
f 297/66/1 298/67/1 299/49/1 300/48/1
f 301/67/1 302/68/1 303/52/1 304/49/1
f 305/4/1 306/3/1 307/11/1 308/22/1
f 309/69/1 310/70/1 311/55/1 312/54/1
f 313/70/1 314/71/1 315/58/1 316/55/1
f 317/6/1 318/15/1 319/8/1 320/7/1
f 321/15/1 322/16/1 323/17/1 324/8/1
f 325/4/1 326/3/1 327/11/1 328/22/1
f 329/72/1 330/73/1 331/61/1 332/60/1
f 333/73/1 334/74/1 335/62/1 336/61/1
f 337/74/1 338/75/1 339/63/1 340/62/1
f 341/75/1 342/76/1 343/64/1 344/63/1
f 345/76/1 346/77/1 347/65/1 348/64/1
f 349/78/1 350/79/1 351/67/1 352/66/1
f 353/79/1 354/80/1 355/68/1 356/67/1
f 357/4/1 358/3/1 359/11/1 360/22/1
f 361/6/1 362/15/1 363/8/1 364/7/1
f 365/15/1 366/16/1 367/17/1 368/8/1
f 369/4/1 370/3/1 371/11/1 372/22/1
f 373/4/1 374/3/1 375/11/1 376/22/1
f 377/6/1 378/15/1 379/8/1 380/7/1
f 381/15/1 382/16/1 383/17/1 384/8/1
f 385/4/1 386/3/1 387/11/1 388/22/1
f 389/4/1 390/3/1 391/11/1 392/22/1
f 393/6/1 394/15/1 395/8/1 396/7/1
f 397/15/1 398/16/1 399/17/1 400/8/1
f 401/4/1 402/3/1 403/11/1 404/22/1
f 405/81/1 406/82/1 407/83/1 408/84/1
f 409/22/1 410/11/1 411/12/1 412/23/1
f 413/14/1 414/4/1 415/22/1 416/19/1
f 417/6/1 418/15/1 419/8/1 420/7/1
f 421/15/1 422/16/1 423/17/1 424/8/1
f 425/85/1 426/14/1 427/19/1 428/18/1
f 429/22/1 430/11/1 431/12/1 432/23/1
f 433/82/1 434/86/1 435/85/1 436/83/1
f 437/87/1 438/88/1 439/89/1 440/90/1
f 441/6/1 442/15/1 443/8/1 444/7/1
f 445/7/1 446/8/1 447/9/1 448/10/1
f 449/11/1 450/7/1 451/10/1 452/12/1
f 453/10/1 454/9/1 455/91/1 456/92/1
f 457/15/1 458/16/1 459/17/1 460/8/1
f 461/12/1 462/10/1 463/92/1 464/93/1
f 465/15/1 466/16/1 467/17/1 468/8/1
f 469/6/1 470/15/1 471/8/1 472/7/1
f 473/15/1 474/16/1 475/17/1 476/8/1
f 477/54/1 478/55/1 479/56/1 480/57/1
f 481/55/1 482/58/1 483/59/1 484/56/1
f 485/6/1 486/15/1 487/8/1 488/7/1
f 489/15/1 490/16/1 491/17/1 492/8/1
f 493/54/1 494/55/1 495/56/1 496/57/1
f 497/55/1 498/58/1 499/59/1 500/56/1
f 501/69/1 502/70/1 503/55/1 504/54/1
f 505/70/1 506/71/1 507/58/1 508/55/1
f 509/6/1 510/15/1 511/8/1 512/7/1
f 513/15/1 514/16/1 515/17/1 516/8/1
f 517/69/1 518/70/1 519/55/1 520/54/1
f 521/70/1 522/71/1 523/58/1 524/55/1
f 525/6/1 526/15/1 527/8/1 528/7/1
f 529/15/1 530/16/1 531/17/1 532/8/1
f 533/6/1 534/15/1 535/8/1 536/7/1
f 537/15/1 538/16/1 539/17/1 540/8/1
f 541/54/1 542/55/1 543/56/1 544/57/1
f 545/55/1 546/58/1 547/59/1 548/56/1
f 549/6/1 550/15/1 551/8/1 552/7/1
f 553/15/1 554/16/1 555/17/1 556/8/1
f 557/69/1 558/70/1 559/55/1 560/54/1
f 561/70/1 562/71/1 563/58/1 564/55/1
f 565/6/1 566/15/1 567/8/1 568/7/1
f 569/15/1 570/16/1 571/17/1 572/8/1
f 573/6/1 574/15/1 575/8/1 576/7/1
f 577/8/1 578/17/1 579/94/1 580/9/1
f 581/3/1 582/6/1 583/7/1 584/11/1
f 585/3/1 586/6/1 587/7/1 588/11/1
f 589/3/1 590/6/1 591/7/1 592/11/1
f 593/3/1 594/6/1 595/7/1 596/11/1
f 597/3/1 598/6/1 599/7/1 600/11/1
f 601/3/1 602/6/1 603/7/1 604/11/1
f 605/3/1 606/6/1 607/7/1 608/11/1
f 609/3/1 610/6/1 611/7/1 612/11/1
f 613/3/1 614/6/1 615/7/1 616/11/1
f 617/3/1 618/6/1 619/7/1 620/11/1
f 621/3/1 622/6/1 623/7/1 624/11/1
f 625/3/1 626/6/1 627/7/1 628/11/1
f 629/3/1 630/6/1 631/7/1 632/11/1
f 633/3/1 634/6/1 635/7/1 636/11/1
f 637/3/1 638/6/1 639/7/1 640/11/1
f 641/3/1 642/6/1 643/7/1 644/11/1
f 645/3/1 646/6/1 647/7/1 648/11/1
f 649/3/1 650/6/1 651/7/1 652/11/1
f 653/3/1 654/6/1 655/7/1 656/11/1
f 657/3/1 658/6/1 659/7/1 660/11/1
f 661/3/1 662/6/1 663/7/1 664/11/1
f 665/3/1 666/6/1 667/7/1 668/11/1
f 669/3/1 670/6/1 671/7/1 672/11/1
f 673/9/1 674/94/1 675/95/1 676/91/1

