# Tiled2Unity generated file. Do not modify by hand.
# Wavefront file for 'OverworldTest_mesh_0002.obj'

# Vertices (Count = 24)
v -18 -5 0
v -19 -5 0
v -19 -4 0
v -18 -4 0
v -19 -5 0
v -20 -5 0
v -20 -4 0
v -19 -4 0
v -20 -5 0
v -21 -5 0
v -21 -4 0
v -20 -4 0
v -21 -5 0
v -22 -5 0
v -22 -4 0
v -21 -4 0
v -18 -6 0
v -19 -6 0
v -19 -5 0
v -18 -5 0
v -21 -6 0
v -22 -6 0
v -22 -5 0
v -21 -5 0

# Texture cooridinates (Count = 8)
vt 0.55 0.9444444
vt 0.575 0.9444444
vt 0.575 0.9722222
vt 0.55 0.9722222
vt 0.6 0.9444444
vt 0.6 0.9722222
vt 0.625 0.9444444
vt 0.625 0.9722222

# Normal
vn 0 0 -1

# Mesh description
g OverworldTest_mesh_0002

# Faces
f 1/1/1 2/2/1 3/3/1 4/4/1
f 5/2/1 6/5/1 7/6/1 8/3/1
f 9/2/1 10/5/1 11/6/1 12/3/1
f 13/5/1 14/7/1 15/8/1 16/6/1
f 17/1/1 18/2/1 19/3/1 20/4/1
f 21/5/1 22/7/1 23/8/1 24/6/1

