# Tiled2Unity generated file. Do not modify by hand.
# Wavefront file for 'OverwoldTest2_mesh_0005.obj'

# Vertices (Count = 256)
v -7 -6 0
v -8 -6 0
v -8 -5 0
v -7 -5 0
v -8 -6 0
v -9 -6 0
v -9 -5 0
v -8 -5 0
v -9 -6 0
v -10 -6 0
v -10 -5 0
v -9 -5 0
v -10 -6 0
v -11 -6 0
v -11 -5 0
v -10 -5 0
v -11 -6 0
v -12 -6 0
v -12 -5 0
v -11 -5 0
v -13 -6 0
v -14 -6 0
v -14 -5 0
v -13 -5 0
v -14 -6 0
v -15 -6 0
v -15 -5 0
v -14 -5 0
v -15 -6 0
v -16 -6 0
v -16 -5 0
v -15 -5 0
v -16 -6 0
v -17 -6 0
v -17 -5 0
v -16 -5 0
v -17 -6 0
v -18 -6 0
v -18 -5 0
v -17 -5 0
v -7 -7 0
v -8 -7 0
v -8 -6 0
v -7 -6 0
v -8 -7 0
v -9 -7 0
v -9 -6 0
v -8 -6 0
v -9 -7 0
v -10 -7 0
v -10 -6 0
v -9 -6 0
v -10 -7 0
v -11 -7 0
v -11 -6 0
v -10 -6 0
v -11 -7 0
v -12 -7 0
v -12 -6 0
v -11 -6 0
v -13 -7 0
v -14 -7 0
v -14 -6 0
v -13 -6 0
v -14 -7 0
v -15 -7 0
v -15 -6 0
v -14 -6 0
v -15 -7 0
v -16 -7 0
v -16 -6 0
v -15 -6 0
v -16 -7 0
v -17 -7 0
v -17 -6 0
v -16 -6 0
v -17 -7 0
v -18 -7 0
v -18 -6 0
v -17 -6 0
v -7 -9 0
v -8 -9 0
v -8 -8 0
v -7 -8 0
v -8 -9 0
v -9 -9 0
v -9 -8 0
v -8 -8 0
v -9 -9 0
v -10 -9 0
v -10 -8 0
v -9 -8 0
v -10 -9 0
v -11 -9 0
v -11 -8 0
v -10 -8 0
v -11 -9 0
v -12 -9 0
v -12 -8 0
v -11 -8 0
v -13 -9 0
v -14 -9 0
v -14 -8 0
v -13 -8 0
v -14 -9 0
v -15 -9 0
v -15 -8 0
v -14 -8 0
v -15 -9 0
v -16 -9 0
v -16 -8 0
v -15 -8 0
v -16 -9 0
v -17 -9 0
v -17 -8 0
v -16 -8 0
v -17 -9 0
v -18 -9 0
v -18 -8 0
v -17 -8 0
v -7 -10 0
v -8 -10 0
v -8 -9 0
v -7 -9 0
v -8 -10 0
v -9 -10 0
v -9 -9 0
v -8 -9 0
v -9 -10 0
v -10 -10 0
v -10 -9 0
v -9 -9 0
v -10 -10 0
v -11 -10 0
v -11 -9 0
v -10 -9 0
v -11 -10 0
v -12 -10 0
v -12 -9 0
v -11 -9 0
v -13 -10 0
v -14 -10 0
v -14 -9 0
v -13 -9 0
v -14 -10 0
v -15 -10 0
v -15 -9 0
v -14 -9 0
v -15 -10 0
v -16 -10 0
v -16 -9 0
v -15 -9 0
v -16 -10 0
v -17 -10 0
v -17 -9 0
v -16 -9 0
v -17 -10 0
v -18 -10 0
v -18 -9 0
v -17 -9 0
v -15 -18 0
v -16 -18 0
v -16 -17 0
v -15 -17 0
v -17 -18 0
v -18 -18 0
v -18 -17 0
v -17 -17 0
v -19 -18 0
v -20 -18 0
v -20 -17 0
v -19 -17 0
v -2 -19 0
v -3 -19 0
v -3 -18 0
v -2 -18 0
v -4 -19 0
v -5 -19 0
v -5 -18 0
v -4 -18 0
v -6 -19 0
v -7 -19 0
v -7 -18 0
v -6 -18 0
v -15 -19 0
v -16 -19 0
v -16 -18 0
v -15 -18 0
v -17 -19 0
v -18 -19 0
v -18 -18 0
v -17 -18 0
v -19 -19 0
v -20 -19 0
v -20 -18 0
v -19 -18 0
v -2 -20 0
v -3 -20 0
v -3 -19 0
v -2 -19 0
v -4 -20 0
v -5 -20 0
v -5 -19 0
v -4 -19 0
v -6 -20 0
v -7 -20 0
v -7 -19 0
v -6 -19 0
v -15 -21 0
v -16 -21 0
v -16 -20 0
v -15 -20 0
v -17 -21 0
v -18 -21 0
v -18 -20 0
v -17 -20 0
v -19 -21 0
v -20 -21 0
v -20 -20 0
v -19 -20 0
v -2 -22 0
v -3 -22 0
v -3 -21 0
v -2 -21 0
v -4 -22 0
v -5 -22 0
v -5 -21 0
v -4 -21 0
v -6 -22 0
v -7 -22 0
v -7 -21 0
v -6 -21 0
v -15 -22 0
v -16 -22 0
v -16 -21 0
v -15 -21 0
v -17 -22 0
v -18 -22 0
v -18 -21 0
v -17 -21 0
v -19 -22 0
v -20 -22 0
v -20 -21 0
v -19 -21 0
v -2 -23 0
v -3 -23 0
v -3 -22 0
v -2 -22 0
v -4 -23 0
v -5 -23 0
v -5 -22 0
v -4 -22 0
v -6 -23 0
v -7 -23 0
v -7 -22 0
v -6 -22 0

# Texture cooridinates (Count = 25)
vt 0.925 0.75
vt 0.95 0.75
vt 0.95 0.7777778
vt 0.925 0.7777778
vt 0.7 0.8611111
vt 0.725 0.8611111
vt 0.725 0.8888889
vt 0.7 0.8888889
vt 0.75 0.8611111
vt 0.75 0.8888889
vt 0.775 0.8611111
vt 0.775 0.8888889
vt 0.925 0.7222222
vt 0.95 0.7222222
vt 0.7 0.8333333
vt 0.725 0.8333333
vt 0.75 0.8333333
vt 0.775 0.8333333
vt 0.825 0.9722222
vt 0.85 0.9722222
vt 0.85 1
vt 0.825 1
vt 0.85 0.9444444
vt 0.875 0.9444444
vt 0.875 0.9722222

# Normal
vn 0 0 -1

# Mesh description
g OverwoldTest2_mesh_0005

# Faces
f 1/1/1 2/2/1 3/3/1 4/4/1
f 5/5/1 6/6/1 7/7/1 8/8/1
f 9/6/1 10/9/1 11/10/1 12/7/1
f 13/6/1 14/9/1 15/10/1 16/7/1
f 17/9/1 18/11/1 19/12/1 20/10/1
f 21/1/1 22/2/1 23/3/1 24/4/1
f 25/5/1 26/6/1 27/7/1 28/8/1
f 29/6/1 30/9/1 31/10/1 32/7/1
f 33/6/1 34/9/1 35/10/1 36/7/1
f 37/9/1 38/11/1 39/12/1 40/10/1
f 41/13/1 42/14/1 43/2/1 44/1/1
f 45/15/1 46/16/1 47/6/1 48/5/1
f 49/16/1 50/17/1 51/9/1 52/6/1
f 53/16/1 54/17/1 55/9/1 56/6/1
f 57/17/1 58/18/1 59/11/1 60/9/1
f 61/13/1 62/14/1 63/2/1 64/1/1
f 65/15/1 66/16/1 67/6/1 68/5/1
f 69/16/1 70/17/1 71/9/1 72/6/1
f 73/16/1 74/17/1 75/9/1 76/6/1
f 77/17/1 78/18/1 79/11/1 80/9/1
f 81/1/1 82/2/1 83/3/1 84/4/1
f 85/5/1 86/6/1 87/7/1 88/8/1
f 89/6/1 90/9/1 91/10/1 92/7/1
f 93/6/1 94/9/1 95/10/1 96/7/1
f 97/9/1 98/11/1 99/12/1 100/10/1
f 101/1/1 102/2/1 103/3/1 104/4/1
f 105/5/1 106/6/1 107/7/1 108/8/1
f 109/6/1 110/9/1 111/10/1 112/7/1
f 113/6/1 114/9/1 115/10/1 116/7/1
f 117/9/1 118/11/1 119/12/1 120/10/1
f 121/13/1 122/14/1 123/2/1 124/1/1
f 125/15/1 126/16/1 127/6/1 128/5/1
f 129/16/1 130/17/1 131/9/1 132/6/1
f 133/16/1 134/17/1 135/9/1 136/6/1
f 137/17/1 138/18/1 139/11/1 140/9/1
f 141/13/1 142/14/1 143/2/1 144/1/1
f 145/15/1 146/16/1 147/6/1 148/5/1
f 149/16/1 150/17/1 151/9/1 152/6/1
f 153/16/1 154/17/1 155/9/1 156/6/1
f 157/17/1 158/18/1 159/11/1 160/9/1
f 161/19/1 162/20/1 163/21/1 164/22/1
f 165/19/1 166/20/1 167/21/1 168/22/1
f 169/19/1 170/20/1 171/21/1 172/22/1
f 173/19/1 174/20/1 175/21/1 176/22/1
f 177/19/1 178/20/1 179/21/1 180/22/1
f 181/19/1 182/20/1 183/21/1 184/22/1
f 185/23/1 186/24/1 187/25/1 188/20/1
f 189/23/1 190/24/1 191/25/1 192/20/1
f 193/23/1 194/24/1 195/25/1 196/20/1
f 197/23/1 198/24/1 199/25/1 200/20/1
f 201/23/1 202/24/1 203/25/1 204/20/1
f 205/23/1 206/24/1 207/25/1 208/20/1
f 209/19/1 210/20/1 211/21/1 212/22/1
f 213/19/1 214/20/1 215/21/1 216/22/1
f 217/19/1 218/20/1 219/21/1 220/22/1
f 221/19/1 222/20/1 223/21/1 224/22/1
f 225/19/1 226/20/1 227/21/1 228/22/1
f 229/19/1 230/20/1 231/21/1 232/22/1
f 233/23/1 234/24/1 235/25/1 236/20/1
f 237/23/1 238/24/1 239/25/1 240/20/1
f 241/23/1 242/24/1 243/25/1 244/20/1
f 245/23/1 246/24/1 247/25/1 248/20/1
f 249/23/1 250/24/1 251/25/1 252/20/1
f 253/23/1 254/24/1 255/25/1 256/20/1

