# Tiled2Unity generated file. Do not modify by hand.
# Wavefront file for 'OverwoldTest2_mesh_0002.obj'

# Vertices (Count = 492)
v 0 -1 0
v -1 -1 0
v -1 0 0
v 0 0 0
v -1 -1 0
v -2 -1 0
v -2 0 0
v -1 0 0
v -2 -1 0
v -3 -1 0
v -3 0 0
v -2 0 0
v -3 -1 0
v -4 -1 0
v -4 0 0
v -3 0 0
v -4 -1 0
v -5 -1 0
v -5 0 0
v -4 0 0
v -5 -1 0
v -6 -1 0
v -6 0 0
v -5 0 0
v -6 -1 0
v -7 -1 0
v -7 0 0
v -6 0 0
v -7 -1 0
v -8 -1 0
v -8 0 0
v -7 0 0
v -8 -1 0
v -9 -1 0
v -9 0 0
v -8 0 0
v -9 -1 0
v -10 -1 0
v -10 0 0
v -9 0 0
v -10 -1 0
v -11 -1 0
v -11 0 0
v -10 0 0
v -11 -1 0
v -12 -1 0
v -12 0 0
v -11 0 0
v -12 -1 0
v -13 -1 0
v -13 0 0
v -12 0 0
v -13 -1 0
v -14 -1 0
v -14 0 0
v -13 0 0
v -14 -1 0
v -15 -1 0
v -15 0 0
v -14 0 0
v -15 -1 0
v -16 -1 0
v -16 0 0
v -15 0 0
v -16 -1 0
v -17 -1 0
v -17 0 0
v -16 0 0
v -17 -1 0
v -18 -1 0
v -18 0 0
v -17 0 0
v -18 -1 0
v -19 -1 0
v -19 0 0
v -18 0 0
v -19 -1 0
v -20 -1 0
v -20 0 0
v -19 0 0
v -20 -1 0
v -21 -1 0
v -21 0 0
v -20 0 0
v -21 -1 0
v -22 -1 0
v -22 0 0
v -21 0 0
v -22 -1 0
v -23 -1 0
v -23 0 0
v -22 0 0
v -23 -1 0
v -24 -1 0
v -24 0 0
v -23 0 0
v -24 -1 0
v -25 -1 0
v -25 0 0
v -24 0 0
v 0 -2 0
v -1 -2 0
v -1 -1 0
v 0 -1 0
v -24 -2 0
v -25 -2 0
v -25 -1 0
v -24 -1 0
v 0 -3 0
v -1 -3 0
v -1 -2 0
v 0 -2 0
v -3 -3 0
v -4 -3 0
v -4 -2 0
v -3 -2 0
v -8 -3 0
v -9 -3 0
v -9 -2 0
v -8 -2 0
v -22 -3 0
v -23 -3 0
v -23 -2 0
v -22 -2 0
v -24 -3 0
v -25 -3 0
v -25 -2 0
v -24 -2 0
v 0 -4 0
v -1 -4 0
v -1 -3 0
v 0 -3 0
v -6 -4 0
v -7 -4 0
v -7 -3 0
v -6 -3 0
v -24 -4 0
v -25 -4 0
v -25 -3 0
v -24 -3 0
v 0 -5 0
v -1 -5 0
v -1 -4 0
v 0 -4 0
v -2 -5 0
v -3 -5 0
v -3 -4 0
v -2 -4 0
v -5 -5 0
v -6 -5 0
v -6 -4 0
v -5 -4 0
v -7 -5 0
v -8 -5 0
v -8 -4 0
v -7 -4 0
v -24 -5 0
v -25 -5 0
v -25 -4 0
v -24 -4 0
v 0 -6 0
v -1 -6 0
v -1 -5 0
v 0 -5 0
v -24 -6 0
v -25 -6 0
v -25 -5 0
v -24 -5 0
v 0 -7 0
v -1 -7 0
v -1 -6 0
v 0 -6 0
v -24 -7 0
v -25 -7 0
v -25 -6 0
v -24 -6 0
v 0 -8 0
v -1 -8 0
v -1 -7 0
v 0 -7 0
v -24 -8 0
v -25 -8 0
v -25 -7 0
v -24 -7 0
v 0 -9 0
v -1 -9 0
v -1 -8 0
v 0 -8 0
v -24 -9 0
v -25 -9 0
v -25 -8 0
v -24 -8 0
v 0 -10 0
v -1 -10 0
v -1 -9 0
v 0 -9 0
v -24 -10 0
v -25 -10 0
v -25 -9 0
v -24 -9 0
v 0 -11 0
v -1 -11 0
v -1 -10 0
v 0 -10 0
v -24 -11 0
v -25 -11 0
v -25 -10 0
v -24 -10 0
v 0 -12 0
v -1 -12 0
v -1 -11 0
v 0 -11 0
v -17 -12 0
v -18 -12 0
v -18 -11 0
v -17 -11 0
v -22 -12 0
v -23 -12 0
v -23 -11 0
v -22 -11 0
v -24 -12 0
v -25 -12 0
v -25 -11 0
v -24 -11 0
v 0 -13 0
v -1 -13 0
v -1 -12 0
v 0 -12 0
v -19 -13 0
v -20 -13 0
v -20 -12 0
v -19 -12 0
v -24 -13 0
v -25 -13 0
v -25 -12 0
v -24 -12 0
v 0 -14 0
v -1 -14 0
v -1 -13 0
v 0 -13 0
v -15 -14 0
v -16 -14 0
v -16 -13 0
v -15 -13 0
v -17 -14 0
v -18 -14 0
v -18 -13 0
v -17 -13 0
v -24 -14 0
v -25 -14 0
v -25 -13 0
v -24 -13 0
v 0 -15 0
v -1 -15 0
v -1 -14 0
v 0 -14 0
v -18 -15 0
v -19 -15 0
v -19 -14 0
v -18 -14 0
v -24 -15 0
v -25 -15 0
v -25 -14 0
v -24 -14 0
v 0 -16 0
v -1 -16 0
v -1 -15 0
v 0 -15 0
v -24 -16 0
v -25 -16 0
v -25 -15 0
v -24 -15 0
v 0 -17 0
v -1 -17 0
v -1 -16 0
v 0 -16 0
v -24 -17 0
v -25 -17 0
v -25 -16 0
v -24 -16 0
v 0 -18 0
v -1 -18 0
v -1 -17 0
v 0 -17 0
v -24 -18 0
v -25 -18 0
v -25 -17 0
v -24 -17 0
v 0 -19 0
v -1 -19 0
v -1 -18 0
v 0 -18 0
v -14 -19 0
v -15 -19 0
v -15 -18 0
v -14 -18 0
v -15 -19 0
v -16 -19 0
v -16 -18 0
v -15 -18 0
v -16 -19 0
v -17 -19 0
v -17 -18 0
v -16 -18 0
v -22 -19 0
v -23 -19 0
v -23 -18 0
v -22 -18 0
v -24 -19 0
v -25 -19 0
v -25 -18 0
v -24 -18 0
v 0 -20 0
v -1 -20 0
v -1 -19 0
v 0 -19 0
v -4 -20 0
v -5 -20 0
v -5 -19 0
v -4 -19 0
v -5 -20 0
v -6 -20 0
v -6 -19 0
v -5 -19 0
v -14 -20 0
v -15 -20 0
v -15 -19 0
v -14 -19 0
v -15 -20 0
v -16 -20 0
v -16 -19 0
v -15 -19 0
v -16 -20 0
v -17 -20 0
v -17 -19 0
v -16 -19 0
v -24 -20 0
v -25 -20 0
v -25 -19 0
v -24 -19 0
v 0 -21 0
v -1 -21 0
v -1 -20 0
v 0 -20 0
v -4 -21 0
v -5 -21 0
v -5 -20 0
v -4 -20 0
v -5 -21 0
v -6 -21 0
v -6 -20 0
v -5 -20 0
v -24 -21 0
v -25 -21 0
v -25 -20 0
v -24 -20 0
v 0 -22 0
v -1 -22 0
v -1 -21 0
v 0 -21 0
v -3 -22 0
v -4 -22 0
v -4 -21 0
v -3 -21 0
v -20 -22 0
v -21 -22 0
v -21 -21 0
v -20 -21 0
v -21 -22 0
v -22 -22 0
v -22 -21 0
v -21 -21 0
v -24 -22 0
v -25 -22 0
v -25 -21 0
v -24 -21 0
v 0 -23 0
v -1 -23 0
v -1 -22 0
v 0 -22 0
v -20 -23 0
v -21 -23 0
v -21 -22 0
v -20 -22 0
v -21 -23 0
v -22 -23 0
v -22 -22 0
v -21 -22 0
v -24 -23 0
v -25 -23 0
v -25 -22 0
v -24 -22 0
v 0 -24 0
v -1 -24 0
v -1 -23 0
v 0 -23 0
v -24 -24 0
v -25 -24 0
v -25 -23 0
v -24 -23 0
v 0 -25 0
v -1 -25 0
v -1 -24 0
v 0 -24 0
v -1 -25 0
v -2 -25 0
v -2 -24 0
v -1 -24 0
v -2 -25 0
v -3 -25 0
v -3 -24 0
v -2 -24 0
v -3 -25 0
v -4 -25 0
v -4 -24 0
v -3 -24 0
v -4 -25 0
v -5 -25 0
v -5 -24 0
v -4 -24 0
v -5 -25 0
v -6 -25 0
v -6 -24 0
v -5 -24 0
v -6 -25 0
v -7 -25 0
v -7 -24 0
v -6 -24 0
v -7 -25 0
v -8 -25 0
v -8 -24 0
v -7 -24 0
v -8 -25 0
v -9 -25 0
v -9 -24 0
v -8 -24 0
v -9 -25 0
v -10 -25 0
v -10 -24 0
v -9 -24 0
v -10 -25 0
v -11 -25 0
v -11 -24 0
v -10 -24 0
v -13 -25 0
v -14 -25 0
v -14 -24 0
v -13 -24 0
v -14 -25 0
v -15 -25 0
v -15 -24 0
v -14 -24 0
v -15 -25 0
v -16 -25 0
v -16 -24 0
v -15 -24 0
v -16 -25 0
v -17 -25 0
v -17 -24 0
v -16 -24 0
v -17 -25 0
v -18 -25 0
v -18 -24 0
v -17 -24 0
v -18 -25 0
v -19 -25 0
v -19 -24 0
v -18 -24 0
v -19 -25 0
v -20 -25 0
v -20 -24 0
v -19 -24 0
v -20 -25 0
v -21 -25 0
v -21 -24 0
v -20 -24 0
v -21 -25 0
v -22 -25 0
v -22 -24 0
v -21 -24 0
v -22 -25 0
v -23 -25 0
v -23 -24 0
v -22 -24 0
v -23 -25 0
v -24 -25 0
v -24 -24 0
v -23 -24 0
v -24 -25 0
v -25 -25 0
v -25 -24 0
v -24 -24 0

# Texture cooridinates (Count = 65)
vt 0.175 0.5277778
vt 0.2 0.5277778
vt 0.2 0.5555556
vt 0.175 0.5555556
vt 0.125 0.4444444
vt 0.15 0.4444444
vt 0.15 0.4722222
vt 0.125 0.4722222
vt 0.175 0.5
vt 0.2 0.5
vt 0.175 0.4722222
vt 0.2 0.4722222
vt 0.15 0.5
vt 0.225 0.8333333
vt 0.25 0.8333333
vt 0.25 0.8611111
vt 0.225 0.8611111
vt 0.05 0.9722222
vt 0.075 0.9722222
vt 0.075 1
vt 0.05 1
vt 0.275 0.8333333
vt 0.275 0.8611111
vt 0.125 0.9722222
vt 0.15 0.9722222
vt 0.15 1
vt 0.125 1
vt 0.1 0.9722222
vt 0.1 1
vt 0.7 0.8055556
vt 0.725 0.8055556
vt 0.725 0.8333333
vt 0.7 0.8333333
vt 0.75 0.8055556
vt 0.75 0.8333333
vt 0.775 0.8055556
vt 0.775 0.8333333
vt 0.175 0.8333333
vt 0.2 0.8333333
vt 0.2 0.8611111
vt 0.175 0.8611111
vt 0.1 0.9444444
vt 0.125 0.9444444
vt 0.15 0.9444444
vt 0.7 0.7777778
vt 0.725 0.7777778
vt 0.75 0.7777778
vt 0.775 0.7777778
vt 0.1 0.9166667
vt 0.125 0.9166667
vt 0.15 0.9166667
vt 0.225 0.6666666
vt 0.25 0.6666666
vt 0.25 0.6944444
vt 0.225 0.6944444
vt 0.275 0.6666666
vt 0.275 0.6944444
vt 0.225 0.6388889
vt 0.25 0.6388889
vt 0.275 0.6388889
vt 0.125 0.5
vt 0.15 0.5277778
vt 0.15 0.5555556
vt 0.125 0.5277778
vt 0.125 0.5555556

# Normal
vn 0 0 -1

# Mesh description
g OverwoldTest2_mesh_0002

# Faces
f 1/1/1 2/2/1 3/3/1 4/4/1
f 5/5/1 6/6/1 7/7/1 8/8/1
f 9/5/1 10/6/1 11/7/1 12/8/1
f 13/5/1 14/6/1 15/7/1 16/8/1
f 17/5/1 18/6/1 19/7/1 20/8/1
f 21/5/1 22/6/1 23/7/1 24/8/1
f 25/5/1 26/6/1 27/7/1 28/8/1
f 29/5/1 30/6/1 31/7/1 32/8/1
f 33/5/1 34/6/1 35/7/1 36/8/1
f 37/5/1 38/6/1 39/7/1 40/8/1
f 41/5/1 42/6/1 43/7/1 44/8/1
f 45/5/1 46/6/1 47/7/1 48/8/1
f 49/5/1 50/6/1 51/7/1 52/8/1
f 53/5/1 54/6/1 55/7/1 56/8/1
f 57/5/1 58/6/1 59/7/1 60/8/1
f 61/5/1 62/6/1 63/7/1 64/8/1
f 65/5/1 66/6/1 67/7/1 68/8/1
f 69/5/1 70/6/1 71/7/1 72/8/1
f 73/5/1 74/6/1 75/7/1 76/8/1
f 77/5/1 78/6/1 79/7/1 80/8/1
f 81/5/1 82/6/1 83/7/1 84/8/1
f 85/5/1 86/6/1 87/7/1 88/8/1
f 89/5/1 90/6/1 91/7/1 92/8/1
f 93/5/1 94/6/1 95/7/1 96/8/1
f 97/9/1 98/10/1 99/2/1 100/1/1
f 101/11/1 102/12/1 103/10/1 104/9/1
f 105/7/1 106/11/1 107/9/1 108/13/1
f 109/11/1 110/12/1 111/10/1 112/9/1
f 113/14/1 114/15/1 115/16/1 116/17/1
f 117/18/1 118/19/1 119/20/1 120/21/1
f 121/15/1 122/22/1 123/23/1 124/16/1
f 125/7/1 126/11/1 127/9/1 128/13/1
f 129/11/1 130/12/1 131/10/1 132/9/1
f 133/18/1 134/19/1 135/20/1 136/21/1
f 137/7/1 138/11/1 139/9/1 140/13/1
f 141/11/1 142/12/1 143/10/1 144/9/1
f 145/14/1 146/15/1 147/16/1 148/17/1
f 149/24/1 150/25/1 151/26/1 152/27/1
f 153/19/1 154/28/1 155/29/1 156/20/1
f 157/7/1 158/11/1 159/9/1 160/13/1
f 161/11/1 162/12/1 163/10/1 164/9/1
f 165/7/1 166/11/1 167/9/1 168/13/1
f 169/11/1 170/12/1 171/10/1 172/9/1
f 173/7/1 174/11/1 175/9/1 176/13/1
f 177/11/1 178/12/1 179/10/1 180/9/1
f 181/7/1 182/11/1 183/9/1 184/13/1
f 185/11/1 186/12/1 187/10/1 188/9/1
f 189/7/1 190/11/1 191/9/1 192/13/1
f 193/11/1 194/12/1 195/10/1 196/9/1
f 197/7/1 198/11/1 199/9/1 200/13/1
f 201/11/1 202/12/1 203/10/1 204/9/1
f 205/7/1 206/11/1 207/9/1 208/13/1
f 209/11/1 210/12/1 211/10/1 212/9/1
f 213/18/1 214/19/1 215/20/1 216/21/1
f 217/14/1 218/15/1 219/16/1 220/17/1
f 221/7/1 222/11/1 223/9/1 224/13/1
f 225/11/1 226/12/1 227/10/1 228/9/1
f 229/24/1 230/25/1 231/26/1 232/27/1
f 233/7/1 234/11/1 235/9/1 236/13/1
f 237/11/1 238/12/1 239/10/1 240/9/1
f 241/24/1 242/25/1 243/26/1 244/27/1
f 245/19/1 246/28/1 247/29/1 248/20/1
f 249/7/1 250/11/1 251/9/1 252/13/1
f 253/11/1 254/12/1 255/10/1 256/9/1
f 257/28/1 258/24/1 259/27/1 260/29/1
f 261/7/1 262/11/1 263/9/1 264/13/1
f 265/11/1 266/12/1 267/10/1 268/9/1
f 269/7/1 270/11/1 271/9/1 272/13/1
f 273/11/1 274/12/1 275/10/1 276/9/1
f 277/7/1 278/11/1 279/9/1 280/13/1
f 281/11/1 282/12/1 283/10/1 284/9/1
f 285/7/1 286/11/1 287/9/1 288/13/1
f 289/11/1 290/12/1 291/10/1 292/9/1
f 293/30/1 294/31/1 295/32/1 296/33/1
f 297/31/1 298/34/1 299/35/1 300/32/1
f 301/34/1 302/36/1 303/37/1 304/35/1
f 305/38/1 306/39/1 307/40/1 308/41/1
f 309/7/1 310/11/1 311/9/1 312/13/1
f 313/11/1 314/12/1 315/10/1 316/9/1
f 317/42/1 318/43/1 319/24/1 320/28/1
f 321/43/1 322/44/1 323/25/1 324/24/1
f 325/45/1 326/46/1 327/31/1 328/30/1
f 329/46/1 330/47/1 331/34/1 332/31/1
f 333/47/1 334/48/1 335/36/1 336/34/1
f 337/7/1 338/11/1 339/9/1 340/13/1
f 341/11/1 342/12/1 343/10/1 344/9/1
f 345/49/1 346/50/1 347/43/1 348/42/1
f 349/50/1 350/51/1 351/44/1 352/43/1
f 353/7/1 354/11/1 355/9/1 356/13/1
f 357/11/1 358/12/1 359/10/1 360/9/1
f 361/39/1 362/14/1 363/17/1 364/40/1
f 365/52/1 366/53/1 367/54/1 368/55/1
f 369/53/1 370/56/1 371/57/1 372/54/1
f 373/7/1 374/11/1 375/9/1 376/13/1
f 377/11/1 378/12/1 379/10/1 380/9/1
f 381/58/1 382/59/1 383/53/1 384/52/1
f 385/59/1 386/60/1 387/56/1 388/53/1
f 389/7/1 390/11/1 391/9/1 392/13/1
f 393/11/1 394/12/1 395/10/1 396/9/1
f 397/7/1 398/11/1 399/9/1 400/13/1
f 401/9/1 402/10/1 403/2/1 404/1/1
f 405/8/1 406/7/1 407/13/1 408/61/1
f 409/8/1 410/7/1 411/13/1 412/61/1
f 413/8/1 414/7/1 415/13/1 416/61/1
f 417/8/1 418/7/1 419/13/1 420/61/1
f 421/8/1 422/7/1 423/13/1 424/61/1
f 425/8/1 426/7/1 427/13/1 428/61/1
f 429/8/1 430/7/1 431/13/1 432/61/1
f 433/8/1 434/7/1 435/13/1 436/61/1
f 437/8/1 438/7/1 439/13/1 440/61/1
f 441/62/1 442/1/1 443/4/1 444/63/1
f 445/64/1 446/62/1 447/63/1 448/65/1
f 449/8/1 450/7/1 451/13/1 452/61/1
f 453/8/1 454/7/1 455/13/1 456/61/1
f 457/8/1 458/7/1 459/13/1 460/61/1
f 461/8/1 462/7/1 463/13/1 464/61/1
f 465/8/1 466/7/1 467/13/1 468/61/1
f 469/8/1 470/7/1 471/13/1 472/61/1
f 473/8/1 474/7/1 475/13/1 476/61/1
f 477/8/1 478/7/1 479/13/1 480/61/1
f 481/8/1 482/7/1 483/13/1 484/61/1
f 485/8/1 486/7/1 487/13/1 488/61/1
f 489/1/1 490/2/1 491/3/1 492/4/1

